SplineFontDB: 3.0
FontName: FabrikCond
FullName: FabrikCond
FamilyName: FabrikCond
Weight: Normal
Copyright: OFL Open Font License
Version: Version 1.5 (20.02.2010)
DefaultBaseFilename: fabrik_nc
ItalicAngle: 0
UnderlinePosition: -125
UnderlineWidth: 50
Ascent: 800
Descent: 200
LayerCount: 2
Layer: 0 1 "Back" 
Layer: 1 1 "Fore" 
XUID: [1021 639 1133821918 5829149]
UniqueID: 4050836
FSType: 0
OS2Version: 0
OS2_WeightWidthSlopeOnly: 0
OS2_UseTypoMetrics: 0
CreationTime: 1256911458
ModificationTime: 1266667840
OS2TypoAscent: 0
OS2TypoAOffset: 1
OS2TypoDescent: 0
OS2TypoDOffset: 1
OS2TypoLinegap: 90
OS2WinAscent: 0
OS2WinAOffset: 1
OS2WinDescent: 0
OS2WinDOffset: 1
HheadAscent: 0
HheadAOffset: 1
HheadDescent: 0
HheadDOffset: 1
OS2Vendor: 'PfEd'
Lookup: 4 0 1 "'liga' Standard Ligatures in Latin lookup 0"  {"'liga' Standard Ligatures in Latin lookup 0 subtable"  } ['liga' ('latn' <'dflt' > ) ]
Lookup: 4 0 0 "'dlig' optionale Ligaturen in Latin lookup 1"  {"'dlig' optionale Ligaturen in Latin lookup 1 subtable"  } ['dlig' ('latn' <'dflt' > ) ]
Lookup: 258 0 0 "'kern' Horizontales Kerning in Latin lookup 0"  {"'kern' Horizontales Kerning in Latin lookup 0 subtable"  } ['kern' ('latn' <'dflt' > ) ]
DEI: 0
Encoding: AdobeStandard
UnicodeInterp: none
NameList: Adobe Glyph List
DisplaySize: -24
AntiAlias: 1
FitToEm: 1
WinInfo: 0 32 16
BeginPrivate: 7
BlueValues 32 [-13 0 410 431 686 719 748 748 ]
OtherBlues 12 [-205 -199 ]
StdHW 4 [81]
StemSnapH 39 [20 61 70 74 81 86 91 102 119 455 465 ]
StdVW 4 [79]
StemSnapV 18 [73 79 83 91 103 ]
BlueScale 4 0.03
EndPrivate
BeginChars: 330 182

StartChar: ydieresis
Encoding: 256 255 0
Width: 472
LayerCount: 2
Fore
SplineSet
72 0 m 1,0,-1
 72 533 l 1,1,-1
 428 533 l 1,2,-1
 428 0 l 1,3,-1
 72 0 l 1,0,-1
116.5 50 m 1,4,-1
 383.5 50 l 1,5,-1
 383.5 483 l 1,6,-1
 116.5 483 l 1,7,-1
 116.5 50 l 1,4,-1
EndSplineSet
EndChar

StartChar: exclam
Encoding: 33 33 4
Width: 185
Flags: W
HStem: 0 21G<76.475 89.525> 673 20G<41.18 121.28 121.28 121.28>
VStem: 31.38 103.24
LayerCount: 2
Fore
SplineSet
41.18 693 m 1,0,-1
 121.28 693 l 1,1,-1
 121.28 252 l 1,2,-1
 40.84 252 l 1,3,-1
 41.18 693 l 1,0,-1
31.38 60 m 0,4,5
 31.38 87 31.38 87 47.4 102.75 c 128,-1,6
 63.42 118.5 63.42 118.5 83 118.5 c 128,-1,7
 102.575 118.5 102.575 118.5 118.6 103.75 c 128,-1,8
 134.62 89.005 134.62 89.005 134.62 62 c 0,9,10
 134.62 33.005 134.62 33.005 118.6 16.5 c 128,-1,11
 102.58 0 102.58 0 83 0 c 128,-1,12
 63.415 0 63.415 0 47.4 16 c 128,-1,13
 31.38 32.005 31.38 32.005 31.38 60 c 0,4,5
EndSplineSet
EndChar

StartChar: quotedbl
Encoding: 34 34 5
Width: 321
Flags: W
LayerCount: 2
Fore
SplineSet
239.42 558 m 1,0,1
 236.763 570.939 236.763 570.939 216.73 627 c 128,-1,2
 196.705 682.995 196.705 682.995 196.7 699 c 0,3,4
 196.7 724.995 196.7 724.995 212.27 740.25 c 128,-1,5
 227.85 755.5 227.85 755.5 246.99 755.5 c 128,-1,6
 266.125 755.5 266.125 755.5 282.14 740.25 c 128,-1,7
 298.16 724.995 298.16 724.995 298.16 696 c 1,8,9
 294.607 672.016 294.607 672.016 286.59 649 c 128,-1,10
 278.591 626.038 278.591 626.038 272.8 614.5 c 128,-1,11
 266.989 602.954 266.989 602.954 254.55 583 c 128,-1,12
 242.157 563.121 242.157 563.121 239.42 558 c 1,0,1
84.56 558 m 1,13,14
 81.9035 570.939 81.9035 570.939 61.87 627 c 128,-1,15
 41.83 682.995 41.83 682.995 41.84 699 c 0,16,17
 41.84 724.995 41.84 724.995 57.42 740.25 c 128,-1,18
 72.9849 755.5 72.9849 755.5 92.12 755.5 c 128,-1,19
 111.26 755.5 111.26 755.5 127.28 740.25 c 128,-1,20
 143.3 724.995 143.3 724.995 143.3 696 c 1,21,22
 139.747 672.016 139.747 672.016 131.73 649 c 128,-1,23
 123.72 626.005 123.72 626.005 117.93 614.5 c 128,-1,24
 112.155 602.995 112.155 602.995 99.69 583 c 128,-1,25
 87.2974 563.121 87.2974 563.121 84.56 558 c 1,13,14
EndSplineSet
EndChar

StartChar: numbersign
Encoding: 35 35 6
Width: 429
Flags: MW
HStem: 219 87<66.86 115.47 66.86 115.47 193.01 260.11 66.86 193.01 339.52 388.14> 389 91<66.86 193.01 193.01 260.11 339.52 388.14>
VStem: 115.48 77.53<70 219 306 389 480 620> 260.11 79.42<70 219 306 389 480 620>
LayerCount: 2
Fore
SplineSet
115.47 620 m 1,0,-1
 193.01 620 l 1,1,-1
 193.01 480 l 1,2,-1
 260.11 480 l 1,3,-1
 260.11 620 l 1,4,-1
 339.52 620 l 1,5,-1
 339.52 480 l 1,6,-1
 388.14 480 l 1,7,-1
 388.14 389 l 1,8,-1
 339.52 389 l 1,9,-1
 339.52 306 l 1,10,-1
 388.14 306 l 1,11,-1
 388.14 219 l 1,12,-1
 339.52 219 l 1,13,-1
 339.52 70 l 1,14,-1
 260.11 70 l 1,15,-1
 260.11 219 l 1,16,-1
 193.01 219 l 1,17,-1
 193.01 70 l 1,18,-1
 115.47 70 l 1,19,-1
 115.47 219 l 1,20,-1
 66.86 219 l 1,21,-1
 66.86 306 l 1,22,-1
 115.47 306 l 1,23,-1
 115.47 390 l 1,24,-1
 66.86 390 l 1,25,-1
 66.86 480 l 1,26,-1
 115.47 480 l 1,27,-1
 115.47 620 l 1,0,-1
193.01 389 m 1,28,-1
 193.01 306 l 1,29,-1
 260.11 306 l 1,30,-1
 260.11 389 l 1,31,-1
 193.01 389 l 1,28,-1
EndSplineSet
EndChar

StartChar: dollar
Encoding: 36 36 7
Width: 692
Flags: W
LayerCount: 2
Fore
SplineSet
335.13 750 m 1,0,-1
 401.68 750 l 1,1,-1
 391.03 682 l 1,2,3
 450.475 682 450.475 682 492.19 640 c 1,4,-1
 455.81 578 l 1,5,6
 422.716 602.187 422.716 602.187 388.5 608.52 c 128,-1,7
 354.3 614.85 354.3 614.85 324.72 596.67 c 128,-1,8
 295.14 578.49 295.14 578.49 283.23 534.5 c 1,9,10
 282.151 506.995 282.151 506.995 292.27 485.36 c 128,-1,11
 302.397 463.741 302.397 463.741 322.19 449.47 c 128,-1,12
 341.967 435.207 341.967 435.207 359.08 426.53 c 128,-1,13
 376.033 417.919 376.033 417.919 400.63 408.72 c 128,-1,14
 425.044 399.61 425.044 399.61 432.96 395.75 c 0,15,16
 488.007 368.894 488.007 368.894 515.43 332.25 c 128,-1,17
 542.865 295.605 542.865 295.605 545.87 237 c 0,18,19
 545.585 156.27 545.585 156.27 507.26 102.99 c 128,-1,20
 468.92 49.71 468.92 49.71 399.02 31 c 1,21,-1
 406.12 -30 l 1,22,-1
 339.57 -30 l 1,23,-1
 345.78 27 l 1,24,25
 272.479 31.5307 272.479 31.5307 191.39 111 c 1,26,-1
 226.88 180 l 1,27,28
 252.555 150.111 252.555 150.111 282.88 132.03 c 128,-1,29
 313.194 113.956 313.194 113.956 344.1 109.77 c 128,-1,30
 374.988 105.587 374.988 105.587 404.89 121.37 c 128,-1,31
 434.792 137.154 434.792 137.154 456.69 173 c 0,32,33
 478.56 223.505 478.56 223.505 463.42 261.26 c 128,-1,34
 448.266 299.024 448.266 299.024 403.46 321 c 0,35,36
 367.332 333.601 367.332 333.601 344.43 343.25 c 128,-1,37
 321.63 352.856 321.63 352.856 292.48 371.12 c 128,-1,38
 263.317 389.382 263.317 389.382 246.92 410.13 c 128,-1,39
 230.537 430.86 230.537 430.86 219.07 463.58 c 128,-1,40
 207.605 496.308 207.605 496.308 208.25 537 c 0,41,42
 209.21 597.93 209.21 597.93 248.08 635.45 c 128,-1,43
 286.96 672.965 286.96 672.965 346.67 682 c 1,44,-1
 335.13 750 l 1,0,-1
EndSplineSet
EndChar

StartChar: percent
Encoding: 37 37 8
Width: 528
Flags: W
LayerCount: 2
Fore
SplineSet
125.64 473 m 0,0,1
 125.64 446.011 125.64 446.011 144.34 434.5 c 128,-1,2
 163.023 422.99 163.023 422.99 181.27 434.5 c 128,-1,3
 199.51 446.005 199.51 446.005 199.51 474 c 0,4,5
 199.51 494.005 199.51 494.005 187.95 504.5 c 128,-1,6
 176.37 515 176.37 515 162.58 515 c 128,-1,7
 148.785 515 148.785 515 137.21 503.5 c 128,-1,8
 125.64 491.99 125.64 491.99 125.64 473 c 0,0,1
66.01 472 m 0,9,10
 66.01 505.992 66.01 505.992 80.25 530 c 128,-1,11
 94.5032 554.005 94.5032 554.005 116.3 563 c 128,-1,12
 138.11 572 138.11 572 163.47 572 c 128,-1,13
 188.821 572 188.821 572 210.64 559.5 c 128,-1,14
 232.438 547.012 232.438 547.012 246.68 523 c 128,-1,15
 260.92 499.017 260.92 499.017 260.92 469 c 0,16,17
 260.92 436.988 260.92 436.988 246.68 412 c 128,-1,18
 232.443 386.991 232.443 386.991 210.64 375.25 c 128,-1,19
 188.821 363.5 188.821 363.5 163.47 363.5 c 128,-1,20
 138.1 363.5 138.1 363.5 116.3 374.25 c 128,-1,21
 94.4999 385 94.4999 385 80.25 410.5 c 128,-1,22
 66.015 436 66.015 436 66.01 472 c 0,9,10
360.61 161 m 0,23,24
 360.61 134 360.61 134 379.3 123 c 128,-1,25
 397.99 112.005 397.99 112.005 416.23 123.5 c 128,-1,26
 434.48 135.011 434.48 135.011 434.48 162 c 0,27,28
 434.48 187.994 434.48 187.994 416.23 198.5 c 128,-1,29
 397.99 209 397.99 209 379.3 198 c 128,-1,30
 360.61 187.005 360.61 187.005 360.61 161 c 0,23,24
300.98 160 m 0,31,32
 300.98 194.995 300.98 194.995 315.66 219 c 128,-1,33
 330.351 243.009 330.351 243.009 351.7 251.75 c 128,-1,34
 373.087 260.5 373.087 260.5 398.43 260.5 c 128,-1,35
 423.79 260.5 423.79 260.5 445.6 247.75 c 128,-1,36
 467.407 235.002 467.407 235.002 482.09 211.5 c 128,-1,37
 496.77 188.003 496.77 188.003 496.77 157 c 0,38,39
 496.77 124.987 496.77 124.987 482.09 100.5 c 128,-1,40
 467.402 76.0007 467.402 76.0007 445.6 63.75 c 128,-1,41
 423.799 51.5 423.799 51.5 398.43 51.5 c 128,-1,42
 373.065 51.5 373.065 51.5 351.7 62.25 c 128,-1,43
 330.343 73.0035 330.343 73.0035 315.66 98.5 c 128,-1,44
 300.975 124 300.975 124 300.98 160 c 0,31,32
441.6 559 m 1,45,-1
 492.33 500 l 1,46,-1
 106.96 52 l 1,47,-1
 56.22 111 l 1,48,-1
 441.6 559 l 1,45,-1
EndSplineSet
EndChar

StartChar: ampersand
Encoding: 38 38 9
Width: 556
Flags: W
LayerCount: 2
Fore
SplineSet
190.79 677.62 m 0,0,1
 270.83 743.8 270.83 743.8 361.67 702.43 c 0,2,3
 399.403 685.4 399.403 685.4 424.3 654.5 c 1,4,-1
 365.26 595.34 l 1,5,6
 346.825 632.945 346.825 632.945 284.41 632.95 c 0,7,8
 222.76 631.975 222.76 631.975 212 570 c 0,9,10
 193.16 461.46 193.16 461.46 280.65 461.46 c 2,11,-1
 525.25 461.46 l 1,12,-1
 525.25 379.25 l 1,13,-1
 461.38 379.25 l 1,14,15
 461.59 236.27 461.59 236.27 461.59 233.94 c 0,16,17
 461.59 -10.005 461.59 -10.005 240 -9.99999 c 0,18,19
 25.215 -9.99999 25.215 -9.99999 24.55 225.47 c 0,20,21
 23.995 393.995 23.995 393.995 145.95 442.09 c 1,22,23
 113.235 499.615 113.235 499.615 128.75 574.13 c 0,24,25
 140.81 636.035 140.81 636.035 190.79 677.62 c 0,0,1
384.18 379.25 m 1,26,-1
 179.38 379.25 l 1,27,28
 104.56 327.395 104.56 327.395 104.57 223.85 c 0,29,30
 104.57 66.005 104.57 66.005 246 66 c 0,31,32
 385.005 66 385.005 66 385 234 c 1,33,34
 384.18 237.31 384.18 237.31 384.18 379.25 c 1,26,-1
EndSplineSet
EndChar

StartChar: quotesingle
Encoding: 169 39 10
Width: 145
Flags: W
HStem: 488 199<74.2197 76>
VStem: 26.1602 99.6797<584.822 662.794>
LayerCount: 2
Fore
SplineSet
74.2197 488 m 1,0,1
 26.1602 569 26.1602 569 26.1602 629 c 0,2,3
 26.1602 654.995 26.1602 654.995 41.7402 671 c 128,-1,4
 57.3096 687.005 57.3096 687.005 76 687 c 128,-1,5
 94.6904 687 94.6904 687 110.26 672.5 c 128,-1,6
 125.845 657.995 125.845 657.995 125.84 629 c 0,7,8
 125.84 595.017 125.84 595.017 108.93 555 c 128,-1,9
 92.0254 514.995 92.0254 514.995 74.2197 488 c 1,0,1
EndSplineSet
EndChar

StartChar: parenleft
Encoding: 40 40 11
Width: 253
Flags: MW
VStem: 64.39 79.66<148 326.5 326.5 328 328 502 502 505>
LayerCount: 2
Fore
SplineSet
64.39 148 m 2,0,-1
 64.39 326.5 l 1,1,-1
 64.39 502 l 2,2,3
 64.39 611.86 64.39 611.86 111.01 670.5 c 0,4,5
 171.469 744.08 171.469 744.08 218.6 775 c 1,6,-1
 218.6 658 l 1,7,8
 144.05 595.09 144.05 595.09 144.05 505 c 2,9,-1
 144.05 328 l 1,10,-1
 144.05 148 l 2,11,12
 144.05 33.595 144.05 33.595 217.71 -18 c 1,13,-1
 217.71 -136 l 1,14,15
 153.39 -93.19 153.39 -93.19 108.35 -26 c 0,16,17
 64.385 39.55 64.385 39.55 64.39 148 c 2,0,-1
EndSplineSet
EndChar

StartChar: parenright
Encoding: 41 41 12
Width: 253
Flags: MW
VStem: 128.94 79.66<111.85 148 111.85 148 111.85 328>
LayerCount: 2
Fore
SplineSet
208.6 148 m 2,0,-1
 208.6 326.5 l 1,1,-1
 208.6 502 l 2,2,3
 208.6 611.86 208.6 611.86 161.98 670.5 c 0,4,5
 101.536 744.08 101.536 744.08 54.39 775 c 1,6,-1
 54.39 658 l 1,7,8
 128.94 595.09 128.94 595.09 128.94 505 c 2,9,-1
 128.94 328 l 1,10,-1
 128.94 148 l 2,11,12
 128.94 33.595 128.94 33.595 55.29 -18 c 1,13,-1
 55.28 -136 l 1,14,15
 119.591 -93.206 119.591 -93.206 164.65 -26 c 0,16,17
 208.6 39.55 208.6 39.55 208.6 148 c 2,0,-1
EndSplineSet
EndChar

StartChar: asterisk
Encoding: 42 42 13
Width: 200
Flags: W
LayerCount: 2
Fore
SplineSet
80.332 770.449 m 1,0,-1
 122.469 770.449 l 1,1,-1
 122.469 710.228 l 1,2,-1
 173.231 721.673 l 1,3,-1
 180.237 681.593 l 1,4,-1
 135 670 l 1,5,-1
 165.231 621.504 l 1,6,-1
 131.142 605.738 l 1,7,-1
 100.994 645.106 l 1,8,-1
 71.0723 606.047 l 1,9,-1
 36.9824 621.814 l 1,10,-1
 67.1182 670.181 l 1,11,-1
 25.2012 681.667 l 1,12,-1
 29.207 721.748 l 1,13,-1
 80.332 710.186 l 1,14,-1
 80.332 770.449 l 1,0,-1
EndSplineSet
EndChar

StartChar: plus
Encoding: 43 43 14
Width: 467
Flags: MW
HStem: 321 80<288.77 404.82 288.77 288.77>
VStem: 208.78 79.99<160 320 401 549>
LayerCount: 2
Fore
SplineSet
404.82 321 m 1,0,-1
 288.77 321 l 1,1,-1
 288.77 160 l 1,2,-1
 208.79 160 l 1,3,-1
 208.79 320 l 1,4,-1
 84.18 320 l 1,5,-1
 84.18 398 l 1,6,-1
 208.79 398 l 1,7,-1
 208.79 549 l 1,8,-1
 287.89 549 l 1,9,-1
 287.89 401 l 1,10,-1
 404.82 401 l 1,11,-1
 404.82 321 l 1,0,-1
EndSplineSet
EndChar

StartChar: comma
Encoding: 44 44 15
Width: 145
Flags: W
LayerCount: 2
Fore
SplineSet
26.27 69 m 0,0,1
 26.27 94.995 26.27 94.995 41.84 110.25 c 128,-1,2
 57.425 125.505 57.425 125.505 76.55 125.5 c 128,-1,3
 95.69 125.5 95.69 125.5 111.71 110.25 c 128,-1,4
 127.73 94.995 127.73 94.995 127.73 66 c 0,5,6
 127.73 46.005 127.73 46.005 119.72 28.5 c 128,-1,7
 111.698 10.9687 111.698 10.9687 104.59 0 c 128,-1,8
 97.4499 -11.0183 97.4499 -11.0183 81 -26 c 128,-1,9
 64.5468 -40.9984 64.5468 -40.9984 60.98 -43 c 128,-1,10
 57.3754 -45.0229 57.3754 -45.0229 43.18 -55 c 1,11,12
 47.6191 -49.0214 47.6191 -49.0214 52.97 -38.5 c 128,-1,13
 58.2795 -28.06 58.2795 -28.06 63.21 -15.5 c 128,-1,14
 68.0964 -3.01427 68.0964 -3.01427 70.77 7.5 c 128,-1,15
 73.4368 17.9875 73.4368 17.9875 72.55 24 c 128,-1,16
 71.6653 29.9983 71.6653 29.9983 65.43 28 c 0,17,18
 50.2841 23.0014 50.2841 23.0014 38.29 36 c 128,-1,19
 26.27 48.9942 26.27 48.9942 26.27 69 c 0,0,1
EndSplineSet
EndChar

StartChar: hyphen
Encoding: 45 45 16
Width: 358
Flags: MW
HStem: 222 81<49 438>
LayerCount: 2
Fore
SplineSet
307.5 212.5 m 1,0,-1
 39.5 212.5 l 1,1,-1
 39.5 312.5 l 1,2,-1
 307.5 312.5 l 1,3,-1
 307.5 212.5 l 1,0,-1
EndSplineSet
EndChar

StartChar: period
Encoding: 46 46 17
Width: 177
Flags: W
LayerCount: 2
Fore
SplineSet
21.38 60 m 0,0,1
 21.38 87 21.38 87 37.4 102.75 c 128,-1,2
 53.42 118.5 53.42 118.5 73 118.5 c 128,-1,3
 92.5746 118.5 92.5746 118.5 108.6 103.75 c 128,-1,4
 124.62 89.005 124.62 89.005 124.62 62 c 0,5,6
 124.62 33.005 124.62 33.005 108.6 16.5 c 128,-1,7
 92.58 0 92.58 0 73 0 c 128,-1,8
 53.415 0 53.415 0 37.4 16 c 128,-1,9
 21.38 32.005 21.38 32.005 21.38 60 c 0,0,1
EndSplineSet
EndChar

StartChar: slash
Encoding: 47 47 18
Width: 367
Flags: MW
HStem: 0 21G<4 86.8 4 4> 684 20G<256.43 334.43 334.43 334.43>
VStem: 4 330.43
LayerCount: 2
Fore
SplineSet
86.8 0 m 1,0,-1
 4 0 l 1,1,-1
 256.43 704 l 1,2,-1
 334.43 704 l 1,3,-1
 86.8 0 l 1,0,-1
EndSplineSet
EndChar

StartChar: zero
Encoding: 48 48 19
Width: 521
Flags: MW
HStem: 3.32823 115.437 771.592 94.8641
VStem: 33.3502 80.4137 415.812 81.3164
LayerCount: 2
Fore
SplineSet
388.081 507.644 m 1,0,1
 378.671 563.45 378.671 563.45 341.526 600.261 c 128,-1,2
 304.383 637.069 304.383 637.069 256.341 637.069 c 0,3,4
 207.806 637.069 207.806 637.069 170.908 600.261 c 128,-1,5
 134.012 563.45 134.012 563.45 124.602 507.644 c 1,6,7
 99.3418 352.094 99.3418 352.094 124.602 197.732 c 1,8,9
 134.012 140.144 134.012 140.144 170.908 103.631 c 128,-1,10
 207.806 67.1182 207.806 67.1182 256.341 67.1182 c 0,11,12
 304.383 67.1182 304.383 67.1182 341.526 103.631 c 128,-1,13
 378.671 140.144 378.671 140.144 388.081 197.732 c 1,14,15
 411.854 352.094 411.854 352.094 388.081 507.644 c 1,0,1
474.791 189.688 m 1,16,17
 459.63 102.091 459.63 102.091 397.975 45.6582 c 128,-1,18
 336.319 -10.7754 336.319 -10.7754 256.471 -10.7754 c 0,19,20
 176.117 -10.7754 176.117 -10.7754 114.209 45.6582 c 128,-1,21
 52.3008 102.091 52.3008 102.091 38.1504 189.688 c 1,22,23
 9.84961 354.215 9.84961 354.215 38.1504 518.741 c 1,24,25
 52.3008 606.339 52.3008 606.339 114.209 662.771 c 128,-1,26
 176.117 719.205 176.117 719.205 256.471 719.205 c 0,27,28
 336.319 719.205 336.319 719.205 397.975 662.771 c 128,-1,29
 459.63 606.339 459.63 606.339 474.791 518.741 c 1,30,31
 503.092 354.215 503.092 354.215 474.791 189.688 c 1,16,17
EndSplineSet
EndChar

StartChar: one
Encoding: 49 49 20
Width: 368
Flags: MW
HStem: 0 21G<170.95 254 170.95 170.95>
VStem: 169.18 84.82<0 506.08>
LayerCount: 2
Fore
SplineSet
169.18 506.08 m 1,0,-1
 116.62 451.2 l 1,1,-1
 46.9102 519.04 l 1,2,-1
 254 728.69 l 1,3,-1
 254 0 l 1,4,-1
 170.95 0 l 1,5,-1
 169.18 506.08 l 1,0,-1
EndSplineSet
EndChar

StartChar: two
Encoding: 50 50 21
Width: 509
Flags: MW
HStem: 0 80.5<213.69 470.31 213.69 470.31> 627 80.5<294.91 309>
VStem: 389.05 73.23<481.021 595.522>
LayerCount: 2
Fore
SplineSet
364.841 598.823 m 128,-1,1
 343.133 623.838 343.133 623.838 288.106 623.838 c 128,-1,2
 233.08 623.838 233.08 623.838 181.414 539.109 c 1,3,-1
 136.206 601.312 l 1,4,5
 194.627 710 194.627 710 294.904 710 c 0,6,7
 375.977 710 375.977 710 420.374 661.154 c 128,-1,8
 464.77 612.308 464.77 612.308 464.77 535.687 c 0,9,10
 464.77 480.097 464.77 480.097 363.414 316.871 c 2,11,-1
 218.185 83 l 1,12,-1
 472.81 83 l 1,13,-1
 472.81 0 l 1,14,-1
 53.7627 0 l 1,15,-1
 318.414 398.198 l 2,16,17
 386.55 501.371 386.55 501.371 386.55 537.589 c 128,-1,0
 386.55 573.807 386.55 573.807 364.841 598.823 c 128,-1,1
EndSplineSet
EndChar

StartChar: three
Encoding: 51 51 22
Width: 428
Flags: MW
HStem: -25.5345 85.3539 642.691 87.6865
VStem: 309.097 88.6816
LayerCount: 2
Fore
SplineSet
83 115 m 1,0,1
 134.301 66 134.301 66 188 66 c 0,2,3
 324 66 324 66 324 206 c 0,4,5
 324 341 324 341 185 341 c 2,6,-1
 110 341 l 1,7,-1
 276 616 l 1,8,-1
 61 616 l 1,9,-1
 61 696 l 1,10,-1
 424 696 l 1,11,-1
 240 404 l 1,12,13
 406 386 406 386 406 206 c 0,14,15
 406 -11 406 -11 194 -11 c 1,16,-1
 192 -11 l 0,17,18
 106 -11 106 -11 49 40 c 1,19,-1
 83 115 l 1,0,1
EndSplineSet
EndChar

StartChar: four
Encoding: 52 52 23
Width: 481
Flags: W
HStem: 0 21G<313.58 393.3 313.58 313.58> 154.49 79.43 157.5 75.4
VStem: 313.37 79.29<0 154.49 241.91 368.52>
LayerCount: 2
Fore
SplineSet
357.62 728.52 m 1,0,-1
 428.32 685.17 l 1,1,-1
 157.01 241.9 l 1,2,-1
 313.37 241.9 l 1,3,-1
 313.37 368.52 l 1,4,-1
 392.66 501.52 l 1,5,-1
 392.66 241.91 l 1,6,-1
 461.93 241.91 l 1,7,-1
 461.93 154.49 l 1,8,-1
 393.3 154.49 l 1,9,-1
 393.3 0 l 1,10,-1
 313.58 0 l 1,11,-1
 313.58 157.5 l 1,12,-1
 11 157.5 l 1,13,-1
 357.62 728.52 l 1,0,-1
EndSplineSet
EndChar

StartChar: five
Encoding: 53 53 24
Width: 391
Flags: MW
HStem: -11.1 85.67<69.1458 215.34> 360 78.67<110.93 211.223> 614.66 81.34<130.13 344.7>
VStem: 270.23 90<133.195 286.429>
LayerCount: 2
Fore
SplineSet
61.77 696 m 1,0,-1
 62.86 696 l 1,1,-1
 61.77 696 l 1,2,-1
 344.7 696 l 1,3,-1
 344.7 614.66 l 1,4,-1
 130.13 614.66 l 1,5,-1
 110.93 438.67 l 1,6,-1
 147.16 438.67 l 2,7,8
 234.835 438.67 234.835 438.67 297.54 372.21 c 128,-1,9
 360.24 305.745 360.24 305.745 360.24 213.78 c 128,-1,10
 360.24 121.815 360.24 121.815 297.27 55.36 c 128,-1,11
 234.3 -11.105 234.3 -11.105 151.04 -11.1 c 0,12,13
 62.09 -11.1 62.09 -11.1 -1.34002 43.36 c 1,14,-1
 59.69 102.54 l 1,15,16
 96.305 74.565 96.305 74.565 152.25 74.57 c 0,17,18
 199.71 74.57 199.71 74.57 234.98 114.76 c 128,-1,19
 270.23 154.945 270.23 154.945 270.23 213.54 c 0,20,21
 270.23 253.77 270.23 253.77 234.01 312.56 c 0,22,23
 206.005 357.995 206.005 357.995 148.1 360 c 2,24,-1
 24.29 360 l 1,25,-1
 61.77 696 l 1,0,-1
EndSplineSet
EndChar

StartChar: six
Encoding: 54 54 25
Width: 465
VWidth: 990
Flags: W
HStem: -10.09 79.33<179.975 300.23> 371.56 79.33 638.05 82.22
VStem: 67.8614 65.3427 67.8614 70.0488 326.713 69.2631
LayerCount: 2
Fore
SplineSet
240.263 -9.34863 m 128,-1,1
 159.048 -9.34863 159.048 -9.34863 100.627 53.9658 c 128,-1,2
 42.207 117.279 42.207 117.279 42.207 211.334 c 0,3,4
 42.207 255.289 42.207 255.289 68.124 314 c 2,5,-1
 244.29 713.077 l 1,6,-1
 334.998 713.077 l 1,7,-1
 202.396 421.357 l 1,8,9
 223.024 432.061 223.024 432.061 240.263 432.061 c 0,10,11
 321.486 432.061 321.486 432.061 379.884 368.752 c 128,-1,12
 438.281 305.444 438.281 305.444 438.281 211.334 c 128,-1,13
 438.281 117.244 438.281 117.244 379.871 53.9482 c 128,-1,0
 321.459 -9.34863 321.459 -9.34863 240.263 -9.34863 c 128,-1,1
157.053 312.823 m 128,-1,15
 125.035 274.44 125.035 274.44 125.035 212.072 c 128,-1,16
 125.035 149.704 125.035 149.704 158.55 110.326 c 128,-1,17
 192.063 70.9463 192.063 70.9463 239.307 70.9463 c 128,-1,18
 286.553 70.9463 286.553 70.9463 320.28 110.004 c 128,-1,19
 354.009 149.062 354.009 149.062 354.009 209.149 c 128,-1,20
 354.009 269.237 354.009 269.237 321.93 310.224 c 128,-1,21
 289.849 351.209 289.849 351.209 239.46 351.209 c 128,-1,14
 189.071 351.209 189.071 351.209 157.053 312.823 c 128,-1,15
EndSplineSet
EndChar

StartChar: seven
Encoding: 55 55 26
Width: 386
Flags: MW
HStem: 0 21G<-1.17001 82.3 -1.17001 -1.17001> 618 75<32.54 247.71 32.54 32.54>
VStem: -1.17 360.44
LayerCount: 2
Fore
SplineSet
31.54 693 m 1,0,-1
 359.27 693 l 1,1,-1
 82.3 0 l 1,2,-1
 -8.16992 0 l 1,3,-1
 239.71 611 l 1,4,-1
 32.54 611 l 1,5,-1
 31.54 693 l 1,0,-1
EndSplineSet
EndChar

StartChar: eight
Encoding: 56 56 27
Width: 439
Flags: W
HStem: -10.7 81.84<149.02 279.778> 343.6 61.71<156.285 271.645> 637.16 74.45<155.712 272.142>
VStem: 18.38 74.94<131.097 285.113> 33.49 79.78<450.441 592.963> 314.24 78.44<450.3 593.483> 335.92 78.58<129.311 285.238>
LayerCount: 2
Fore
SplineSet
213.09 711.62 m 128,-1,1
 287.445 711.62 287.445 711.62 340.06 652.97 c 128,-1,2
 392.68 594.335 392.68 594.335 392.68 514.24 c 128,-1,3
 392.68 434.155 392.68 434.155 346.03 376.94 c 1,4,5
 414.505 310.835 414.505 310.835 414.5 214.74 c 128,-1,6
 414.5 118.65 414.5 118.65 356.47 53.9801 c 128,-1,7
 298.435 -10.6999 298.435 -10.6999 216.44 -10.6999 c 128,-1,8
 134.435 -10.6999 134.435 -10.6999 76.41 53.9801 c 128,-1,9
 18.375 118.645 18.375 118.645 18.38 213.11 c 128,-1,10
 18.38 307.565 18.38 307.565 83.15 373.29 c 1,11,12
 33.485 431.265 33.485 431.265 33.49 512.8 c 128,-1,13
 33.49 594.325 33.49 594.325 86.11 652.97 c 128,-1,0
 138.73 711.62 138.73 711.62 213.09 711.62 c 128,-1,1
213.74 637.16 m 128,-1,15
 172.145 637.16 172.145 637.16 142.7 603.44 c 128,-1,16
 113.27 569.72 113.27 569.72 113.27 522.08 c 128,-1,17
 113.27 474.455 113.27 474.455 142.7 439.88 c 128,-1,18
 172.13 405.305 172.13 405.305 213.74 405.31 c 128,-1,19
 255.349 405.31 255.349 405.31 284.79 439.88 c 128,-1,20
 314.235 474.455 314.235 474.455 314.24 522.08 c 128,-1,21
 314.24 569.72 314.24 569.72 284.79 603.44 c 128,-1,14
 255.345 637.16 255.345 637.16 213.74 637.16 c 128,-1,15
214.6 343.6 m 128,-1,23
 164.381 343.6 164.381 343.6 128.85 303.69 c 128,-1,24
 93.315 263.775 93.315 263.775 93.32 207.37 c 128,-1,25
 93.32 150.97 93.32 150.97 128.85 111.06 c 128,-1,26
 164.389 71.1401 164.389 71.1401 214.6 71.1401 c 128,-1,27
 264.82 71.1401 264.82 71.1401 300.37 111.06 c 128,-1,28
 335.92 150.975 335.92 150.975 335.92 207.37 c 128,-1,29
 335.92 263.77 335.92 263.77 300.37 303.68 c 128,-1,22
 264.82 343.61 264.82 343.61 214.6 343.6 c 128,-1,23
EndSplineSet
EndChar

StartChar: nine
Encoding: 57 57 28
Width: 432
Flags: MW
HStem: 0 21G<119.86 218.773> 641.97 78.3<149.961 279.213>
VStem: 19.09 80.11<441.822 590.303> 330 80.11<437.423 590.507>
LayerCount: 2
Fore
SplineSet
410.11 513.88 m 0,0,1
 410.11 488.292 410.11 488.292 401.87 451.67 c 1,2,-1
 210.29 -3.05176e-05 l 1,3,-1
 119.86 0 l 1,4,-1
 255 315 l 1,5,6
 248.902 305.448 248.902 305.448 214.58 307.44 c 0,7,8
 138.787 311.838 138.787 311.838 76.37 367.93 c 0,9,10
 19.085 419.41 19.085 419.41 19.09 513.88 c 0,11,12
 19.09 599.335 19.09 599.335 76.37 659.81 c 128,-1,13
 133.64 720.275 133.64 720.275 214.58 720.28 c 128,-1,14
 295.52 720.28 295.52 720.28 352.82 659.8 c 128,-1,15
 410.105 599.335 410.105 599.335 410.11 513.88 c 0,0,1
214.58 641.97 m 128,-1,17
 166.52 641.97 166.52 641.97 132.85 605.72 c 128,-1,18
 99.205 569.51 99.205 569.51 99.2 516.17 c 128,-1,19
 99.2 462.77 99.2 462.77 131.92 425.59 c 128,-1,20
 164.62 388.435 164.62 388.435 214.85 388.44 c 128,-1,21
 265.13 388.44 265.13 388.44 297.58 423.45 c 128,-1,22
 329.995 458.43 329.995 458.43 330 513.97 c 128,-1,23
 330 569.51 330 569.51 296.34 605.72 c 128,-1,16
 262.655 641.97 262.655 641.97 214.58 641.97 c 128,-1,17
EndSplineSet
EndChar

StartChar: colon
Encoding: 58 58 29
Width: 152
Flags: MW
VStem: 28.38 104.13
LayerCount: 2
Fore
SplineSet
28.38 409 m 0,0,1
 28.38 433.99 28.38 433.99 44.84 449.25 c 128,-1,2
 61.31 464.505 61.31 464.505 80.45 464.5 c 128,-1,3
 99.585 464.5 99.585 464.5 116.04 450.25 c 128,-1,4
 132.51 436 132.51 436 132.51 410 c 0,5,6
 132.51 383 132.51 383 116.04 367.5 c 128,-1,7
 99.5797 352 99.5797 352 80.45 352 c 128,-1,8
 61.31 352 61.31 352 44.84 367 c 128,-1,9
 28.385 382 28.385 382 28.38 409 c 0,0,1
27.49 90 m 0,10,11
 27.49 117 27.49 117 43.51 132.75 c 128,-1,12
 59.53 148.5 59.53 148.5 79.11 148.5 c 128,-1,13
 98.6846 148.5 98.6846 148.5 114.71 133.75 c 128,-1,14
 130.73 119.005 130.73 119.005 130.73 92 c 0,15,16
 130.73 63.005 130.73 63.005 114.71 46.5 c 128,-1,17
 98.69 30 98.69 30 79.11 30 c 128,-1,18
 59.525 30 59.525 30 43.51 46 c 128,-1,19
 27.49 62.005 27.49 62.005 27.49 90 c 0,10,11
EndSplineSet
EndChar

StartChar: semicolon
Encoding: 59 59 30
Width: 145
Flags: W
LayerCount: 2
Fore
SplineSet
23.54 414 m 128,-1,1
 23.54 439.991 23.54 439.991 39.57 455 c 128,-1,2
 55.59 470 55.59 470 75.17 470 c 128,-1,3
 94.7493 470 94.7493 470 110.76 456 c 128,-1,4
 126.79 441.996 126.79 441.996 126.79 416 c 0,5,6
 126.79 389.005 126.79 389.005 110.76 373.5 c 128,-1,7
 94.7498 358 94.7498 358 75.17 358 c 128,-1,8
 55.59 358 55.59 358 39.57 373 c 128,-1,0
 23.54 388.009 23.54 388.009 23.54 414 c 128,-1,1
28 92 m 0,9,10
 28 117.01 28 117.01 44.01 132.75 c 128,-1,11
 60.03 148.5 60.03 148.5 79.17 148.5 c 128,-1,12
 98.31 148.5 98.31 148.5 113.88 132.75 c 128,-1,13
 129.46 116.99 129.46 116.99 129.46 88 c 0,14,15
 129.46 69.0302 129.46 69.0302 121.89 50 c 128,-1,16
 114.349 31.0429 114.349 31.0429 107.21 20.5 c 128,-1,17
 100.071 9.97918 100.071 9.97918 83.17 -4 c 2,18,-1
 63.15 -20.5 l 2,19,20
 60.0541 -22.9857 60.0541 -22.9857 44.91 -32 c 1,21,22
 49.3613 -26.9922 49.3613 -26.9922 54.7 -16 c 128,-1,23
 60.0273 -5.03106 60.0273 -5.03106 64.93 7 c 128,-1,24
 69.82 19 69.82 19 72.94 29.5 c 128,-1,25
 76.0571 39.9904 76.0571 39.9904 74.72 46 c 128,-1,26
 73.386 51.9953 73.386 51.9953 67.16 50 c 0,27,28
 52.9178 45.9972 52.9178 45.9972 40.46 58.5 c 128,-1,29
 28 70.99 28 70.99 28 92 c 0,9,10
EndSplineSet
EndChar

StartChar: less
Encoding: 60 60 31
Width: 460
Flags: MW
HStem: 133.36 465.19
VStem: 10.85 406.79
LayerCount: 2
Fore
SplineSet
417.64 598.54 m 1,0,-1
 417.64 518.12 l 1,1,-1
 151.74 370.95 l 1,2,-1
 413.19 213.85 l 1,3,-1
 413.19 133.35 l 1,4,-1
 10.85 374.05 l 1,5,-1
 417.64 598.54 l 1,0,-1
EndSplineSet
EndChar

StartChar: equal
Encoding: 61 61 32
Width: 628
Flags: MW
HStem: 209 79<136.31 531.47 136.31 136.31> 438 80<134.53 527.91 134.53 527.91 134.31 527.91>
LayerCount: 2
Fore
SplineSet
136.09 288 m 1,0,-1
 531.47 288 l 1,1,-1
 531.47 209 l 1,2,-1
 136.31 209 l 1,3,-1
 136.09 288 l 1,0,-1
134.53 518 m 1,4,-1
 527.91 518 l 1,5,-1
 527.91 438 l 1,6,-1
 134.31 438 l 1,7,-1
 134.53 518 l 1,4,-1
EndSplineSet
EndChar

StartChar: greater
Encoding: 62 62 33
Width: 460
Flags: MW
HStem: 133.36 465.19
VStem: 48.85 406.79
LayerCount: 2
Fore
SplineSet
48.85 598.54 m 1,0,-1
 48.85 518.12 l 1,1,-1
 314.76 370.95 l 1,2,-1
 53.3 213.85 l 1,3,-1
 53.3 133.35 l 1,4,-1
 455.64 374.05 l 1,5,-1
 48.85 598.54 l 1,0,-1
EndSplineSet
EndChar

StartChar: question
Encoding: 63 63 34
Width: 517
Flags: W
HStem: 0 21G<230.387 249.97> 680.5 76.5<196.609 321.069>
VStem: 188.56 103.24<17.0184 102.255> 198.12 79.56<220 308.938> 355.02 81.07<493.127 644.453>
LayerCount: 2
Fore
SplineSet
140 690 m 1,0,1
 200.69 757.005 200.69 757.005 254.96 757 c 0,2,3
 436.085 757 436.085 757 436.09 565 c 0,4,5
 436.09 528.19 436.09 528.19 420.04 493.12 c 128,-1,6
 403.983 458.05 403.983 458.05 366.56 414 c 2,7,-1
 329.18 370 l 2,8,9
 295.865 330.79 295.865 330.79 283.73 309.29 c 0,10,11
 277.68 298.571 277.68 298.571 277.68 220 c 1,12,-1
 198.12 220 l 1,13,14
 198.12 311.155 198.12 311.155 212.2 338.29 c 0,15,16
 236.29 384.715 236.29 384.715 258.4 409.91 c 2,17,-1
 299.73 457 l 1,18,-1
 316.07 473.5 l 2,19,20
 355.025 510.4 355.025 510.4 355.02 565.04 c 0,21,22
 355.02 680.495 355.02 680.495 256.03 680.5 c 0,23,24
 206.05 680.5 206.05 680.5 140.17 610 c 1,25,-1
 140 690 l 1,0,1
204.58 16.0001 m 128,-1,27
 188.56 32.0051 188.56 32.0051 188.56 59.5001 c 128,-1,28
 188.56 86.9951 188.56 86.9951 204.58 102.75 c 128,-1,29
 220.6 118.5 220.6 118.5 240.18 118.5 c 128,-1,30
 259.755 118.5 259.755 118.5 275.78 103.75 c 128,-1,31
 291.8 89.0051 291.8 89.0051 291.8 61.0001 c 128,-1,32
 291.8 32.9951 291.8 32.9951 275.78 16.5001 c 128,-1,33
 259.76 6.10351e-05 259.76 6.10351e-05 240.18 6.10352e-05 c 128,-1,26
 220.595 6.10352e-05 220.595 6.10352e-05 204.58 16.0001 c 128,-1,27
EndSplineSet
EndChar

StartChar: at
Encoding: 64 64 35
Width: 855
Flags: W
LayerCount: 2
Fore
SplineSet
669.08 90 m 1,0,1
 642.38 70.995 642.38 70.995 626.81 61.5 c 128,-1,2
 611.224 51.9954 611.224 51.9954 583.2 40 c 128,-1,3
 555.15 27.9935 555.15 27.9935 520.9 23 c 128,-1,4
 486.606 18 486.606 18 440.35 18 c 0,5,6
 382.51 18 382.51 18 331.78 38.5 c 128,-1,7
 281.035 59.005 281.035 59.005 246.34 92.5 c 128,-1,8
 211.618 126.006 211.618 126.006 186.26 169 c 128,-1,9
 160.891 212.012 160.891 212.012 149.33 258 c 128,-1,10
 137.75 304.005 137.75 304.005 137.75 350 c 0,11,12
 137.75 489.005 137.75 489.005 212.51 590 c 0,13,14
 252.56 644 252.56 644 322.88 677 c 128,-1,15
 393.185 710 393.185 710 463.5 710 c 0,16,17
 528.47 710 528.47 710 588.98 689 c 128,-1,18
 649.505 668 649.505 668 686.89 632 c 0,19,20
 734.955 583.98 734.955 583.98 758.08 516 c 128,-1,21
 781.22 448.02 781.22 448.02 781.22 371 c 0,22,23
 781.22 313.966 781.22 313.966 769.65 280.5 c 128,-1,24
 758.085 247.005 758.085 247.005 721.59 210 c 0,25,26
 691.335 181.005 691.335 181.005 650.4 174 c 128,-1,27
 609.45 166.995 609.45 166.995 575.64 181.5 c 128,-1,28
 541.815 196.005 541.815 196.005 528.46 226 c 1,29,30
 496.42 197.5 496.42 197.5 455.93 197.5 c 128,-1,31
 415.435 197.5 415.435 197.5 379.84 211.75 c 128,-1,32
 344.23 226 344.23 226 319.32 266.5 c 128,-1,33
 294.39 307 294.39 307 294.39 363 c 0,34,35
 294.39 406.967 294.39 406.967 307.3 442.5 c 128,-1,36
 320.192 477.983 320.192 477.983 342.45 498.5 c 128,-1,37
 364.713 519.008 364.713 519.008 392.29 529.25 c 128,-1,38
 419.903 539.5 419.903 539.5 449.7 539.5 c 128,-1,39
 479.52 539.5 479.52 539.5 505.32 525 c 0,40,41
 521.334 516.012 521.334 516.012 527.58 504 c 1,42,-1
 527.58 535 l 1,43,-1
 592.54 535 l 1,44,-1
 592.54 467 l 2,45,46
 592.54 426.975 592.54 426.975 588.09 404.5 c 128,-1,47
 583.65 382 583.65 382 583.65 347.5 c 128,-1,48
 583.65 312.932 583.65 312.932 588.98 277 c 1,49,50
 597.005 250 597.005 250 629.92 244 c 128,-1,51
 662.851 238.002 662.851 238.002 684.21 262 c 0,52,53
 706.459 286.993 706.459 286.993 712.25 303 c 128,-1,54
 718.03 318.978 718.03 318.978 718.03 367 c 0,55,56
 718.03 494.995 718.03 494.995 646.83 571 c 0,57,58
 616.575 603.31 616.575 603.31 566.29 620.5 c 0,59,60
 515.11 638.005 515.11 638.005 464.38 638 c 0,61,62
 404.761 638 404.761 638 346.91 612 c 128,-1,63
 289.072 586.013 289.072 586.013 258.79 542 c 0,64,65
 206.29 465.005 206.29 465.005 206.28 350 c 0,66,67
 206.28 309.991 206.28 309.991 222.31 265.5 c 128,-1,68
 238.323 221.015 238.323 221.015 267.25 181 c 0,69,70
 299.29 136.69 299.29 136.69 342.01 113.5 c 0,71,72
 395.2 84.625 395.2 84.625 440.35 86 c 0,73,74
 473.126 87 473.126 87 499.98 87 c 128,-1,75
 526.697 87 526.697 87 544.04 94 c 0,76,77
 561.601 101.088 561.601 101.088 576.52 108 c 0,78,79
 591.642 114.999 591.642 114.999 602.33 123 c 2,80,-1
 625.47 140 l 1,81,-1
 669.08 90 l 1,0,1
359.37 366 m 0,82,83
 359.37 333 359.37 333 374.05 307.5 c 128,-1,84
 388.735 282 388.735 282 410.98 273 c 128,-1,85
 433.24 264 433.24 264 456.38 264 c 128,-1,86
 479.51 264 479.51 264 499.1 281 c 0,87,88
 522.699 301.494 522.699 301.494 525.79 327 c 0,89,90
 527.13 337.913 527.13 337.913 527.13 368.5 c 128,-1,91
 527.13 399.069 527.13 399.069 525.79 409 c 0,92,93
 517.778 439.006 517.778 439.006 498.65 457.25 c 128,-1,94
 479.51 475.505 479.51 475.505 456.38 475.5 c 128,-1,95
 433.251 475.5 433.251 475.5 410.98 465.25 c 128,-1,96
 388.735 455.005 388.735 455.005 374.05 428.5 c 128,-1,97
 359.37 402.004 359.37 402.004 359.37 366 c 0,82,83
EndSplineSet
EndChar

StartChar: A
Encoding: 65 65 36
Width: 636
Flags: MW
HStem: 175 91<244.44 423.33 244.44 457.15 212.4 423.33>
LayerCount: 2
Fore
SplineSet
329.88 731 m 1,0,-1
 618.24 0 l 1,1,-1
 542.03 0 l 1,2,-1
 467.15 175 l 1,3,-1
 202.4 175 l 1,4,-1
 138.74 0 l 1,5,-1
 55.76 0 l 1,6,-1
 329.88 731 l 1,0,-1
433.33 266 m 1,7,-1
 330.77 538 l 1,8,-1
 234.44 266 l 1,9,-1
 433.33 266 l 1,7,-1
EndSplineSet
EndChar

StartChar: B
Encoding: 66 66 37
Width: 422
Flags: W
HStem: 0 79<124 343.3> 324 59<225 343.3> 325 84.91<126 225 225 268> 615 72<126 185 185 292.9>
VStem: 44.5098 81.4902<79 325 409.91 616> 268 81.04<379.146 645.763> 316 81.9902<42.25 360.75>
LayerCount: 2
Fore
SplineSet
44.5098 687 m 1,0,-1
 185.18 687 l 0,1,2
 349.04 687 349.04 687 349.04 510 c 0,3,4
 349.04 386 349.04 386 274.72 386 c 1,5,6
 273.83 386 273.83 386 273.83 384.5 c 128,-1,7
 273.83 383 273.83 383 274.72 383 c 0,8,9
 397.99 383 397.99 383 397.99 200.5 c 0,10,11
 397.99 0 397.99 0 225.54 0 c 2,12,-1
 44.5098 0 l 1,13,-1
 44.5098 687 l 1,0,-1
126 616 m 1,14,-1
 126 409.91 l 1,15,-1
 185 409.91 l 0,16,17
 268 409.91 268 409.91 268 512.455 c 128,-1,18
 268 615 268 615 185 615 c 1,19,-1
 185 616 l 1,20,-1
 126 616 l 1,14,-1
124 325 m 1,21,-1
 124 79 l 1,22,-1
 225 79 l 0,23,24
 316 79 316 79 316 201.5 c 128,-1,25
 316 324 316 324 225 324 c 1,26,-1
 225 325 l 1,27,-1
 124 325 l 1,21,-1
EndSplineSet
EndChar

StartChar: C
Encoding: 67 67 38
Width: 564
Flags: MW
HStem: -10.27 78.13<266.339 439.095> 628.75 77.78<265.286 435.542>
VStem: 48.02 89.65
LayerCount: 2
Fore
SplineSet
556.91 87.7598 m 1,0,1
 467.09 -10.2695 467.09 -10.2695 342.26 -10.2695 c 0,2,3
 249.636 -10.2695 249.636 -10.2695 185.98 41.0303 c 0,4,5
 117.91 95.8885 117.91 95.8885 80.8604 169.39 c 0,6,7
 39.0205 252.395 39.0205 252.395 39.0205 349.52 c 0,8,9
 39.0205 448.124 39.0205 448.124 76.2598 526.66 c 0,10,11
 115.185 608.751 115.185 608.751 179.97 651.51 c 0,12,13
 263.333 706.53 263.333 706.53 354.51 706.53 c 2,14,-1
 355.62 706.53 l 2,15,16
 461.6 706.53 461.6 706.53 548.74 621.46 c 1,17,-1
 489.59 560 l 1,18,19
 441.301 626.75 441.301 626.75 350.08 626.75 c 0,20,21
 254.314 626.75 254.314 626.75 190.492 544.545 c 128,-1,22
 126.67 462.34 126.67 462.34 126.67 348.13 c 0,23,24
 126.67 228.944 126.67 228.944 190.41 151.8 c 0,25,26
 258.086 69.8604 258.086 69.8604 347.27 69.8604 c 0,27,28
 449.519 69.8604 449.519 69.8604 505.01 145 c 1,29,-1
 556.91 87.7598 l 1,0,1
EndSplineSet
EndChar

StartChar: D
Encoding: 68 68 39
Width: 525
Flags: MW
HStem: 0 86.66<128.87 141.002 229.043 326.98> 613.34 78.66<128.87 318.471>
VStem: 77.92 74.94 426.58 78.32
LayerCount: 2
Fore
SplineSet
42.78 691 m 1,0,1
 111.98 689.329 111.98 689.329 264.39 689 c 0,2,3
 495.345 688.505 495.345 688.505 492.23 358 c 0,4,5
 487.88 -0.00500488 487.88 -0.00500488 261.72 0 c 2,6,-1
 42.78 0 l 1,7,-1
 42.78 691 l 1,0,1
402.58 361.85 m 0,8,9
 399.805 609.305 399.805 609.305 256.93 610.34 c 0,10,11
 129.25 610.4 129.25 610.4 128.87 610.34 c 1,12,-1
 128.87 83.66 l 1,13,14
 163.025 81.89 163.025 81.89 256.93 83.66 c 0,15,16
 405.655 86.66 405.655 86.66 402.58 361.85 c 0,8,9
EndSplineSet
EndChar

StartChar: E
Encoding: 69 69 40
Width: 399
Flags: W
LayerCount: 2
Fore
SplineSet
44.61 693 m 1,0,-1
 367.35 693 l 1,1,-1
 367.35 608 l 1,2,-1
 127.49 608 l 5,3,-1
 127.49 412 l 5,4,-1
 297.94 412 l 1,5,-1
 297.94 329 l 1,6,-1
 127.49 329 l 5,7,-1
 127.49 82 l 5,8,-1
 375.37 82 l 1,9,-1
 375.37 0 l 1,10,-1
 44.61 0 l 1,11,-1
 44.61 693 l 1,0,-1
EndSplineSet
EndChar

StartChar: F
Encoding: 70 70 41
Width: 396
Flags: W
LayerCount: 2
Fore
SplineSet
45.42 691 m 1,0,-1
 356.58 691 l 1,1,-1
 356.58 609 l 1,2,-1
 128.18 609 l 5,3,-1
 128.18 409.91 l 5,4,-1
 298.73 409.91 l 1,5,-1
 298.73 329 l 1,6,-1
 128.18 329 l 5,7,-1
 128.18 0 l 5,8,-1
 45.42 0 l 1,9,-1
 45.42 691 l 1,0,-1
EndSplineSet
EndChar

StartChar: G
Encoding: 71 71 42
Width: 603
Flags: MW
HStem: -5.46 83.46<256.665 441.517> 279.5 88.73<378.3 488.4> 633.2 82.92<268.304 442.783>
VStem: 26.99 93.01<239.294 478.634> 510.4 92.53
LayerCount: 2
Fore
SplineSet
380.51 365.23 m 1,0,-1
 580.93 365.23 l 1,1,-1
 580.93 109 l 1,2,3
 480.927 -9.0549 480.927 -9.0549 333.77 -8.45996 c 0,4,5
 222 -8 222 -8 108 118 c 0,6,7
 32.9957 202.209 32.9957 202.209 32.9902 356.81 c 0,8,9
 32.9902 506.035 32.9902 506.035 106.67 589.94 c 0,10,11
 214.836 713.12 214.836 713.12 359.08 713.12 c 0,12,13
 468.01 713.12 468.01 713.12 547.84 637.97 c 1,14,-1
 547.84 637.3 l 1,15,-1
 488 577 l 1,16,17
 441.171 629.683 441.171 629.683 362.92 630.2 c 0,18,19
 253.312 630.925 253.312 630.925 176 543 c 0,20,21
 123 483.861 123 483.861 123 355 c 0,22,23
 122.794 243.186 122.794 243.186 178 172 c 0,24,25
 254 74 254 74 337 75 c 0,26,27
 433.803 74.3919 433.803 74.3919 488.4 137.05 c 1,28,-1
 488.4 276.5 l 1,29,-1
 378.3 276.5 l 1,30,-1
 377.41 278.5 l 1,31,-1
 377.41 365.5 l 1,32,-1
 380.51 365.23 l 1,0,-1
EndSplineSet
EndChar

StartChar: H
Encoding: 72 72 43
Width: 539
Flags: W
LayerCount: 2
Fore
SplineSet
394.74 696 m 1,0,-1
 478.73 696 l 1,1,-1
 478.73 0 l 1,2,-1
 396.74 0 l 1,3,-1
 396.74 311 l 1,4,-1
 125.04 311 l 1,5,-1
 125.04 0 l 1,6,-1
 44.2695 0 l 1,7,-1
 44.2695 690 l 1,8,-1
 127.15 690 l 1,9,-1
 124.15 690 l 1,10,-1
 124.15 394 l 1,11,-1
 394.74 394 l 1,12,-1
 394.74 696 l 1,0,-1
EndSplineSet
EndChar

StartChar: I
Encoding: 73 73 44
Width: 164
Flags: MW
HStem: 0 21G<44.84 125.05 44.84 44.84> 676 20G<44.95 125.05 125.05 125.05>
VStem: 44.95 80.1
LayerCount: 2
Fore
SplineSet
88.9502 696 m 1,0,-1
 125.05 696 l 1,1,-1
 125.05 0 l 1,2,-1
 41.9473 0 l 1,3,-1
 41.9473 696 l 1,4,-1
 88.9502 696 l 1,0,-1
EndSplineSet
EndChar

StartChar: J
Encoding: 74 74 45
Width: 321
Flags: W
LayerCount: 2
Fore
SplineSet
16.3 72 m 1,0,1
 48.34 43.995 48.34 43.995 83.5 44 c 128,-1,2
 118.652 44 118.652 44 146.68 62.5 c 0,3,4
 203.2 99.79 203.2 99.79 203.2 228 c 2,5,-1
 203.2 700 l 1,6,-1
 286.19 700 l 5,7,-1
 286.19 222 l 2,8,9
 286.19 61.605 286.19 61.605 228.77 10.5 c 0,10,11
 194.498 -20.0056 194.498 -20.0056 152.2 -33.95 c 0,12,13
 72.49 -60.245 72.49 -60.245 17 -14 c 1,14,-1
 16.3 72 l 1,0,1
EndSplineSet
EndChar

StartChar: K
Encoding: 75 75 46
Width: 523
Flags: W
HStem: 0 21G<44.59 126.36 405.06 504.41> 666 20G<44.59 125.36 354.44 451.01>
VStem: 44.59 81.7704<0 337 382 686> 354.44 96.57<589.43 686> 405.06 99.35<0 99.35>
LayerCount: 2
Fore
SplineSet
354.44 686 m 1,0,-1
 451.01 686 l 1,1,-1
 206.59 362 l 5,2,-1
 504.41 0 l 1,3,-1
 405.06 0 l 1,4,-1
 126.36 337 l 5,5,-1
 126.36 0 l 5,6,-1
 44.59 0 l 1,7,-1
 44.59 686 l 1,8,-1
 125.36 686 l 5,9,-1
 125.36 382 l 5,10,-1
 354.44 686 l 1,0,-1
EndSplineSet
EndChar

StartChar: L
Encoding: 76 76 47
Width: 384
Flags: W
HStem: 0 80<120.45 372.32>
VStem: 37.68 82.7702<80 690>
LayerCount: 2
Fore
SplineSet
120.45 690 m 5,0,-1
 120.45 80 l 5,1,-1
 372.32 80 l 1,2,-1
 372.32 0 l 1,3,-1
 37.68 0 l 1,4,-1
 37.68 691 l 1,5,-1
 120.45 690 l 5,0,-1
EndSplineSet
EndChar

StartChar: M
Encoding: 77 77 48
Width: 631
Flags: MW
VStem: 97.28 87.22 549.4 86.33
LayerCount: 2
Fore
SplineSet
311.72 338.83 m 1,0,-1
 575.32 729.27 l 1,1,-1
 575.32 3.05176e-05 l 1,2,-1
 486.79 3.05176e-05 l 1,3,-1
 486.79 455.69 l 1,4,-1
 311.73 190.15 l 1,5,-1
 128.45 458.73 l 1,6,-1
 128.45 0 l 5,7,-1
 44.58 0 l 1,8,-1
 44.58 733.26 l 1,9,-1
 311.72 338.83 l 1,0,-1
EndSplineSet
EndChar

StartChar: N
Encoding: 78 78 49
Width: 564
Flags: W
HStem: 0 21G<44.65 127.08> 676 20G<439.03 523.35>
VStem: 44.65 82.4301<0 456.71> 439.03 84.3197<207.31 696>
LayerCount: 2
Fore
SplineSet
127.08 456.71 m 1,0,-1
 127.08 0 l 1,1,-1
 44.65 0 l 1,2,-1
 44.65 703.3 l 1,3,-1
 439.03 207.31 l 5,4,-1
 439.03 696 l 5,5,-1
 523.35 696 l 1,6,-1
 523.35 -33.29 l 1,7,-1
 127.08 456.71 l 1,0,-1
EndSplineSet
EndChar

StartChar: O
Encoding: 79 79 50
Width: 702
Flags: W
HStem: -17.6504 80.8691<278.119 412.442> 636.902 76.748<265.523 405.402>
VStem: 46.9502 82.7285<280.458 419.687> 567.291 86.2588<281.279 421.996>
LayerCount: 2
Fore
SplineSet
435.372 613.266 m 132,-1,1
 389.263 636.902 389.263 636.902 335.464 636.902 c 132,-1,2
 281.663 636.902 281.663 636.902 241.971 612.204 c 132,-1,3
 202.265 587.524 202.265 587.524 178.357 547.062 c 132,-1,4
 154.44 506.619 154.44 506.619 142.062 455.13 c 132,-1,5
 129.679 403.619 129.679 403.619 129.679 350.06 c 132,-1,6
 129.679 296.52 129.679 296.52 144.624 244.459 c 132,-1,7
 159.572 192.449 159.572 192.449 185.182 152.527 c 132,-1,8
 210.801 112.599 210.801 112.599 252.213 87.9141 c 132,-1,9
 293.619 63.2188 293.619 63.2188 345.286 63.2188 c 132,-1,10
 396.944 63.2188 396.944 63.2188 440.493 87.9141 c 132,-1,11
 484.03 112.59 484.03 112.59 510.94 153.049 c 132,-1,12
 537.854 193.55 537.854 193.55 552.562 245.51 c 132,-1,13
 567.291 297.517 567.291 297.517 567.291 351.641 c 132,-1,14
 567.291 405.76 567.291 405.76 552.133 457.232 c 132,-1,15
 536.984 508.721 536.984 508.721 509.228 549.162 c 132,-1,0
 481.502 589.598 481.502 589.598 435.372 613.266 c 132,-1,1
210.587 682.233 m 132,-1,17
 267.145 713.65 267.145 713.65 340.54 713.65 c 132,-1,18
 413.935 713.65 413.935 713.65 475.672 681.718 c 132,-1,19
 537.41 649.785 537.41 649.785 575.4 598.29 c 132,-1,20
 613.395 546.795 613.395 546.795 633.47 480.87 c 132,-1,21
 653.55 414.912 653.55 414.912 653.55 346.45 c 132,-1,22
 653.55 277.981 653.55 277.981 633.04 212.55 c 132,-1,23
 612.533 147.144 612.533 147.144 574.97 96.1699 c 132,-1,24
 537.428 45.1943 537.428 45.1943 476.96 13.7598 c 132,-1,25
 416.525 -17.6504 416.525 -17.6504 343.86 -17.6504 c 4,26,27
 271.455 -17.6504 271.455 -17.6504 213.6 13.7598 c 132,-1,28
 155.76 45.1846 155.76 45.1846 120.35 96.6797 c 132,-1,29
 84.9326 148.2 84.9326 148.2 65.9502 213.59 c 132,-1,30
 46.9502 279.024 46.9502 279.024 46.9502 348 c 132,-1,31
 46.9502 417.005 46.9502 417.005 65.5195 482.42 c 132,-1,32
 84.0703 547.803 84.0703 547.803 119.05 599.32 c 132,-1,16
 154.03 650.815 154.03 650.815 210.587 682.233 c 132,-1,17
EndSplineSet
EndChar

StartChar: P
Encoding: 80 80 51
Width: 406
Flags: W
HStem: 304 81<125.96 240.191> 609 83<125.69 246.336>
VStem: 45.08 80.88<3 304 385 609> 293.36 70.06<457.584 540.003>
LayerCount: 2
Fore
SplineSet
45.08 692 m 1,0,-1
 190.31 692 l 2,1,2
 245.495 692 245.495 692 286.43 664 c 128,-1,3
 327.379 635.996 327.379 635.996 345.39 593 c 128,-1,4
 363.42 549.995 363.42 549.995 363.42 499 c 128,-1,5
 363.42 448 363.42 448 344.06 404.5 c 128,-1,6
 324.695 361 324.695 361 282.43 332.5 c 128,-1,7
 240.145 304 240.145 304 181.41 304 c 2,8,-1
 125.96 304 l 1,9,-1
 125.96 3 l 1,10,-1
 45.08 3 l 1,11,-1
 45.08 692 l 1,0,-1
125.69 609 m 1,12,-1
 125.69 385 l 1,13,-1
 205 385 l 2,14,15
 232.07 385 232.07 385 252.35 401.5 c 128,-1,16
 272.649 418.004 272.649 418.004 283 442.5 c 128,-1,17
 293.36 466.983 293.36 466.983 293.36 496 c 128,-1,18
 293.36 524.979 293.36 524.979 285.54 550 c 128,-1,19
 277.71 575.005 277.71 575.005 257.85 592 c 128,-1,20
 237.969 609 237.969 609 210.08 609 c 2,21,-1
 125.69 609 l 1,12,-1
EndSplineSet
EndChar

StartChar: Q
Encoding: 81 81 52
Width: 693
Flags: MW
HStem: -18.28 85.3 626.42 85.26
VStem: 58.45 73.23 612.11 73.27
LayerCount: 2
Fore
SplineSet
509.86 671.02 m 128,-1,1
 582.43 621.835 582.43 621.835 624.65 537.36 c 128,-1,2
 666.86 452.91 666.86 452.91 666.86 353.68 c 0,3,4
 666.86 222.31 666.86 222.31 594.73 120.78 c 1,5,-1
 651.71 47.1301 l 1,6,-1
 652.58 46.0101 l 1,7,-1
 651.56 45.0301 l 1,8,-1
 585.2 -18.8599 l 1,9,-1
 584.02 -19.9999 l 1,10,-1
 583.02 -18.6799 l 1,11,-1
 530.25 51.91 l 1,12,13
 449.745 -12.83 449.745 -12.83 351.91 -12.83 c 0,14,15
 266.575 -12.83 266.575 -12.83 193.96 36.3801 c 128,-1,16
 121.405 85.55 121.405 85.55 79.18 170.01 c 128,-1,17
 36.97 254.46 36.97 254.46 36.96 353.68 c 128,-1,18
 36.96 452.905 36.96 452.905 79.17 537.36 c 128,-1,19
 121.395 621.825 121.395 621.825 193.96 671.02 c 128,-1,20
 266.575 720.235 266.575 720.235 351.91 720.23 c 128,-1,0
 437.26 720.23 437.26 720.23 509.86 671.02 c 128,-1,1
351.91 631.88 m 128,-1,22
 252.835 631.88 252.835 631.88 183.03 550.59 c 128,-1,23
 113.16 469.23 113.16 469.23 113.17 353.68 c 128,-1,24
 113.17 238.135 113.17 238.135 183.03 156.81 c 128,-1,25
 252.825 75.57 252.825 75.57 351.91 75.57 c 0,26,27
 421.825 75.57 421.825 75.57 480.2 118.89 c 1,28,-1
 475.99 124.5 l 1,29,-1
 416.73 202.79 l 1,30,-1
 415.87 203.93 l 1,31,-1
 416.9 204.9 l 1,32,-1
 481.47 265.67 l 1,33,-1
 482.65 266.78 l 1,34,-1
 483.64 265.48 l 1,35,-1
 531.41 202.64 l 1,36,-1
 543.33 187.23 l 1,37,38
 590.625 260.94 590.625 260.94 590.62 353.68 c 0,39,40
 590.62 469.24 590.62 469.24 520.78 550.6 c 128,-1,21
 451 631.885 451 631.885 351.91 631.88 c 128,-1,22
EndSplineSet
EndChar

StartChar: R
Encoding: 82 82 53
Width: 440
Flags: MW
HStem: 0 21G<47.79 122 47.79 47.79 356.98 441.88 356.98 356.98> 313 81<124.74 221.6> 618 83<123.74 123.74 123.74 203.35 203.35 217.13>
VStem: 65.79 90.21
LayerCount: 2
Fore
SplineSet
48.12 701 m 1,0,-1
 203.35 701 l 2,1,2
 249.64 701 249.64 701 286.12 681.5 c 128,-1,3
 322.615 662 322.615 662 343.08 629.5 c 128,-1,4
 363.555 596.995 363.555 596.995 372.01 556 c 128,-1,5
 380.471 515.001 380.471 515.001 374.68 475.5 c 128,-1,6
 368.886 435.979 368.886 435.979 348.42 399.5 c 128,-1,7
 327.969 363.022 327.969 363.022 295.92 341 c 1,8,-1
 441.88 0 l 1,9,-1
 356.98 0 l 1,10,-1
 221.6 313 l 1,11,-1
 123 313 l 5,12,-1
 123 0 l 5,13,-1
 47.79 0 l 1,14,-1
 48.12 701 l 1,0,-1
124.74 618 m 5,15,-1
 124.74 394 l 5,16,-1
 212.9 394 l 2,17,18
 239.115 394 239.115 394 259.41 410.5 c 128,-1,19
 279.694 427.004 279.694 427.004 290.27 451.5 c 128,-1,20
 300.84 476.018 300.84 476.018 300.84 505 c 128,-1,21
 300.84 533.995 300.84 533.995 292.8 559 c 128,-1,22
 284.775 584.005 284.775 584.005 264.9 601 c 128,-1,23
 245.034 618 245.034 618 217.13 618 c 2,24,-1
 124.74 618 l 5,15,-1
EndSplineSet
EndChar

StartChar: S
Encoding: 83 83 54
Width: 372
Flags: MW
HStem: -10.01 83.48<82.1952 212.932> 650.46 78.24<183.314 326.946>
VStem: 49.74 80.71 324.44 86.65
LayerCount: 2
Fore
SplineSet
98.9502 426.55 m 2,0,1
 51.2354 486.049 51.2354 486.049 51.2305 561.66 c 0,2,3
 51.2305 630.601 51.2305 630.601 112.3 684.23 c 0,4,5
 163.495 729.186 163.495 729.186 233.29 729.19 c 0,6,7
 308.516 729.19 308.516 729.19 330.84 703.25 c 1,8,-1
 342.84 618.971 l 5,9,10
 313.08 647.95 313.08 647.95 246.41 647.95 c 4,11,12
 202.896 647.95 202.896 647.95 176.11 623.01 c 4,13,14
 143.94 593.076 143.94 593.076 143.94 550.94 c 4,15,16
 143.94 522.778 143.94 522.778 173.971 485.21 c 2,17,-1
 298.83 329.01 l 2,18,19
 353.378 260.77 353.378 260.77 352.57 195.601 c 0,20,21
 351.444 106.899 351.444 106.899 301.41 48.3398 c 0,22,23
 251.979 -9.51367 251.979 -9.51367 173.11 -9.51953 c 0,24,25
 89.9805 -9.51953 89.9805 -9.51953 28.9805 38.7598 c 1,26,-1
 16.9805 146.09 l 1,27,28
 84.585 76.9551 84.585 76.9551 150.811 76.96 c 0,29,30
 201.069 76.96 201.069 76.96 228 109 c 0,31,32
 253.931 141.04 253.931 141.04 253.931 191.271 c 0,33,34
 253.931 233.295 253.931 233.295 227.021 266.851 c 2,35,-1
 98.9502 426.55 l 2,0,1
EndSplineSet
EndChar

StartChar: T
Encoding: 84 84 55
Width: 463
Flags: MW
HStem: 0 21G<204.39 290.83 204.39 212.06 212.06 212.06> 605 81<41.19 212.06 41.19 448.81>
VStem: 199.06 92.77
LayerCount: 2
Fore
SplineSet
210.06 0 m 17,0,-1
 210.06 605 l 1,1,-1
 41.19 605 l 1,2,-1
 41.19 686 l 1,3,-1
 448.81 686 l 1,4,-1
 448.81 606 l 1,5,-1
 292.83 606 l 1,6,-1
 292.83 0 l 13,7,-1
 210.06 0 l 17,0,-1
EndSplineSet
EndChar

StartChar: U
Encoding: 85 85 56
Width: 457
Flags: MW
HStem: -14.5 102<188.08 248.815 188.08 277.81>
VStem: 57.57 102.77 383.44 103.99
LayerCount: 2
Fore
SplineSet
127.33 678 m 5,0,-1
 127.33 238 l 1,1,2
 127.33 73.5 127.33 73.5 218.44 73.5 c 128,-1,3
 309.55 73.5 309.55 73.5 309.55 242 c 1,4,-1
 310.45 240 l 1,5,-1
 310.45 676 l 1,6,-1
 394.43 676 l 1,7,-1
 394.43 237 l 1,8,9
 394.43 -17.25 394.43 -17.25 218.215 -17.25 c 0,10,11
 44.57 -17.25 44.57 -17.25 44.57 236 c 1,12,-1
 44.57 678 l 1,13,-1
 127.33 678 l 5,0,-1
EndSplineSet
EndChar

StartChar: V
Encoding: 86 86 57
Width: 573
Flags: W
VStem: 490.37 82.2899<597.71 680>
LayerCount: 2
Fore
SplineSet
490.37 680 m 1,0,-1
 572.66 680 l 1,1,-1
 280.75 -46.7499 l 1,2,-1
 2.34001 680.91 l 1,3,-1
 84.2305 680.91 l 1,4,-1
 281.83 184.56 l 1,5,-1
 490.37 680 l 1,0,-1
EndSplineSet
EndChar

StartChar: W
Encoding: 87 87 58
Width: 796
Flags: W
VStem: 714.54 79.02<672.073 681.47 602.45 681.47>
LayerCount: 2
Fore
SplineSet
436.49 363.58 m 1,0,-1
 287.82 -22.54 l 1,1,-1
 71.46 681.62 l 1,2,-1
 154.37 681.62 l 1,3,-1
 299.48 224.57 l 1,4,-1
 423.13 545.17 l 5,5,-1
 423.58 546.51 l 5,6,-1
 452.41 546.51 l 5,7,-1
 569.3 226.51 l 1,8,-1
 714.54 681.47 l 1,9,-1
 793.56 681.47 l 1,10,-1
 578.06 -20.57 l 1,11,-1
 436.49 363.58 l 1,0,-1
EndSplineSet
EndChar

StartChar: X
Encoding: 88 88 59
Width: 531
Flags: MW
HStem: 0 21G<46.3617 132.263 46.3617 46.3617 468.523 556.948 468.523 468.523>
LayerCount: 2
Fore
SplineSet
513.948 0 m 1,0,-1
 425.522 0 l 1,1,-1
 252.208 319.17 l 1,2,-1
 89.2627 0 l 1,3,-1
 3.36133 0 l 1,4,-1
 202.84 389.95 l 1,5,-1
 38.1865 696 l 1,6,-1
 124.759 696 l 1,7,-1
 253.746 461.84 l 1,8,-1
 380.719 696 l 5,9,-1
 464.419 696 l 1,10,-1
 304.729 394.99 l 1,11,-1
 513.948 0 l 1,0,-1
EndSplineSet
EndChar

StartChar: Y
Encoding: 89 89 60
Width: 552
Flags: MW
HStem: 0 21G<222.67 313.78 222.67 222.67>
VStem: 258.67 91.11
LayerCount: 2
Fore
SplineSet
-1 696 m 1,0,-1
 83 696 l 1,1,-1
 266.78 380.94 l 1,2,-1
 437 696 l 1,3,-1
 521 696 l 1,4,-1
 309.78 307.6 l 1,5,-1
 309.78 0 l 1,6,-1
 226.67 0 l 1,7,-1
 226.67 310.5 l 1,8,-1
 228.17 310.5 l 1,9,-1
 228.41 309.37 l 1,10,-1
 -1 696 l 1,0,-1
EndSplineSet
EndChar

StartChar: Z
Encoding: 90 90 61
Width: 566
Flags: MW
HStem: 0 93 597 85
LayerCount: 2
Fore
SplineSet
151.79 682 m 1,0,-1
 561.09 682 l 1,1,-1
 208.55 80 l 1,2,-1
 563.86 80 l 1,3,-1
 563.86 0 l 1,4,-1
 56.91 0 l 1,5,-1
 423.69 608 l 1,6,-1
 152.65 608 l 1,7,-1
 151.79 682 l 1,0,-1
EndSplineSet
EndChar

StartChar: bracketleft
Encoding: 91 91 62
Width: 288
Flags: W
HStem: 0 80<45.32 244.68 124.98 128.98 128.98 244.68> 622 80<124.98 242.9 124.98 124.98>
VStem: 45.32 199.36
LayerCount: 2
Fore
SplineSet
45.32 0 m 1,0,-1
 45.32 702 l 1,1,-1
 242.9 702 l 1,2,-1
 242.9 622 l 1,3,-1
 124.98 622 l 1,4,-1
 124.98 80 l 1,5,-1
 244.68 80 l 1,6,-1
 244.68 0 l 1,7,-1
 128.98 0 l 1,8,-1
 45.32 0 l 1,0,-1
EndSplineSet
EndChar

StartChar: backslash
Encoding: 92 92 63
Width: 464
Flags: W
LayerCount: 2
Fore
SplineSet
317.2 0 m 1,0,-1
 79.57 702 l 1,1,-1
 168.57 702 l 1,2,-1
 412.43 0 l 1,3,-1
 317.2 0 l 1,0,-1
EndSplineSet
EndChar

StartChar: bracketright
Encoding: 93 93 64
Width: 285
Flags: W
HStem: 0 80<43.32 147.02 43.32 159.02 43.32 147.02 43.32 242.68> 622 80<45.1 147.02 45.1 242.68>
VStem: 43.32 199.36 147.02 95.66<80 622 622 622>
LayerCount: 2
Fore
SplineSet
242.68 0 m 1,0,-1
 159.02 0 l 1,1,-1
 43.32 0 l 1,2,-1
 43.32 80 l 1,3,-1
 147.02 80 l 1,4,-1
 147.02 622 l 1,5,-1
 45.1 622 l 1,6,-1
 45.1 702 l 1,7,-1
 242.68 702 l 1,8,-1
 242.68 0 l 1,0,-1
EndSplineSet
EndChar

StartChar: asciicircum
Encoding: 94 94 65
Width: 571
Flags: W
LayerCount: 2
Fore
SplineSet
431.98 530 m 1,0,-1
 354.56 530 l 1,1,-1
 307.38 608 l 1,2,-1
 254.87 530 l 1,3,-1
 173 530 l 1,4,-1
 308.28 734 l 1,5,-1
 431.98 530 l 1,0,-1
EndSplineSet
EndChar

StartChar: underscore
Encoding: 95 95 66
Width: 488
Flags: W
LayerCount: 2
Fore
SplineSet
452.54 0 m 1,0,-1
 452.54 -80 l 1,1,-1
 40.46 -80 l 1,2,-1
 40.46 0 l 1,3,-1
 452.54 0 l 1,0,-1
EndSplineSet
EndChar

StartChar: grave
Encoding: 193 96 67
Width: 945
Flags: W
LayerCount: 2
Fore
SplineSet
465.29 985 m 1,0,-1
 589.89 838 l 1,1,-1
 545.39 791 l 1,2,-1
 410.11 912 l 1,3,-1
 465.29 985 l 1,0,-1
EndSplineSet
EndChar

StartChar: a
Encoding: 97 97 68
Width: 371
Flags: MW
HStem: -15.01 81.01<122.182 236.305> 196.5 81
VStem: 41.19 76.21 277.93 73.85
LayerCount: 2
Fore
SplineSet
333.78 0 m 1,0,-1
 255.93 0 l 5,1,-1
 255.93 30.4404 l 1,2,3
 235.116 -10.0098 235.116 -10.0098 180.21 -10.0098 c 0,4,5
 32.21 -10.0098 32.21 -10.0098 32.21 129 c 1,6,-1
 32.21 129.2 l 1,7,8
 32.21 272.5 32.21 272.5 186.17 272.5 c 0,9,10
 239.838 272.5 239.838 272.5 259.93 231 c 1,11,12
 259.93 351.786 259.93 351.786 185.147 343.015 c 0,13,14
 148.819 338.754 148.819 338.754 120.41 322 c 1,15,-1
 82.8203 384 l 1,16,17
 135.335 422 135.335 422 196.37 422 c 0,18,19
 294.429 423.036 294.429 423.036 320.89 344.5 c 0,20,21
 333.78 306.242 333.78 306.242 333.78 267.9 c 2,22,-1
 333.78 0 l 1,0,-1
260.22 131 m 1,23,24
 260.22 196.245 260.22 196.245 183.81 196.245 c 0,25,26
 108.4 196.245 108.4 196.245 108.4 129.11 c 0,27,28
 108.4 66 108.4 66 183.81 66 c 0,29,30
 260.22 66 260.22 66 260.22 131 c 1,23,24
EndSplineSet
EndChar

StartChar: b
Encoding: 98 98 69
Width: 396
Flags: MW
HStem: 12.58 19.75G 345.78 82.66
VStem: 96.34 78.45 351.37 81.36
LayerCount: 2
Fore
SplineSet
205.46 420.56 m 0,0,1
 365.675 420.56 365.675 420.56 365.68 205.28 c 128,-1,2
 365.68 -10 365.68 -10 203.45 -10 c 0,3,4
 135.08 -10 135.08 -10 112.39 40.43 c 1,5,-1
 112.39 0 l 1,6,-1
 37.08 0 l 5,7,-1
 37.08 748 l 1,8,-1
 120.85 748 l 1,9,-1
 120.85 372.78 l 1,10,11
 141.895 420.57 141.895 420.57 205.46 420.56 c 0,0,1
293.24 208.83 m 128,-1,13
 293.24 342.78 293.24 342.78 203.18 342.78 c 128,-1,14
 113.12 342.78 113.12 342.78 113.12 208.83 c 128,-1,15
 113.12 74.895 113.12 74.895 206.03 74.89 c 0,16,12
 293.24 74.89 293.24 74.89 293.24 208.83 c 128,-1,13
EndSplineSet
EndChar

StartChar: c
Encoding: 99 99 70
Width: 320
Flags: MW
HStem: -3.29 82.56<140.276 275.603> 345.84 80.57<141.477 268.903>
VStem: 15.92 78.82<125.416 292.732>
LayerCount: 2
Fore
SplineSet
317.56 378.95 m 1,0,-1
 277.87 314.74 l 1,1,2
 266.022 329.827 266.022 329.827 247.22 337.27 c 128,-1,3
 228.396 344.701 228.396 344.701 188.26 345.84 c 0,4,5
 154.95 346.995 154.95 346.995 124.68 306.27 c 128,-1,6
 94.245 265.545 94.245 265.545 94.74 204.15 c 128,-1,7
 95.235 142.755 95.235 142.755 128.08 111.46 c 0,8,9
 161.156 80.1545 161.156 80.1545 188.32 79.27 c 0,10,11
 222.724 78.3844 222.724 78.3844 241.26 82.67 c 128,-1,12
 259.806 86.9464 259.806 86.9464 277.24 102.4 c 1,13,-1
 315.05 38.13 l 1,14,15
 299.27 22.095 299.27 22.095 288.89 14.91 c 0,16,17
 261.68 -3.93003 261.68 -3.93003 192.15 -3.29002 c 128,-1,18
 122.625 -2.66002 122.625 -2.66002 68.79 55.43 c 128,-1,19
 14.955 113.51 14.955 113.51 15.92 207.07 c 128,-1,20
 16.88 300.625 16.88 300.625 64.17 362.61 c 128,-1,21
 111.465 424.59 111.465 424.59 189.23 426.41 c 0,22,23
 236.675 427.415 236.675 427.415 264.97 415.14 c 0,24,25
 297.923 400.852 297.923 400.852 317.56 378.95 c 1,0,-1
EndSplineSet
EndChar

StartChar: d
Encoding: 100 100 71
Width: 408
Flags: MW
HStem: -6.08 79.25 352.26 74.91
VStem: 16.01 73.21<107.647 301.309>
LayerCount: 2
Fore
SplineSet
16.01 203.12 m 0,0,1
 16.01 427.18 16.01 427.18 199.08 427.18 c 0,2,3
 255.95 427.18 255.95 427.18 281.37 381.94 c 1,4,-1
 281.37 748 l 1,5,-1
 363.14 748 l 1,6,-1
 363.14 0 l 1,7,-1
 279.93 0 l 1,8,-1
 279.93 41 l 1,9,10
 241.783 -11.0801 241.783 -11.0801 184.62 -11.0801 c 0,11,12
 16.01 -11.0801 16.01 -11.0801 16.01 203.12 c 0,0,1
89.21 206.87 m 0,13,14
 89.21 66.1797 89.21 66.1797 185.58 66.1797 c 4,15,16
 280.965 66.1797 280.965 66.1797 280.965 212.72 c 0,17,18
 280.965 345.26 280.965 345.26 197.18 345.26 c 0,19,20
 89.21 345.26 89.21 345.26 89.21 206.87 c 0,13,14
EndSplineSet
EndChar

StartChar: e
Encoding: 101 101 72
Width: 384
Flags: MW
HStem: -10.59 82.38<137.388 270.322> 165.39 83.14<100.25 293.1> 349.42 74.24<139.321 260.378>
VStem: 18.11 343.78<166.044 246.047>
LayerCount: 2
Fore
SplineSet
291.05 111 m 1,0,-1
 337.17 59.55 l 1,1,2
 289.665 -10.59 289.665 -10.59 198.24 -10.59 c 0,3,4
 123.66 -10.59 123.66 -10.59 83.97 32.92 c 128,-1,5
 44.28 76.435 44.28 76.435 31.2 115.96 c 128,-1,6
 18.11 155.485 18.11 155.485 18.11 203.94 c 0,7,8
 18.11 311.769 18.11 311.769 80.8301 378.44 c 0,9,10
 127.135 427.67 127.135 427.67 199.67 427.66 c 0,11,12
 271.141 427.66 271.141 427.66 328.05 356.59 c 0,13,14
 377.104 295.585 377.104 295.585 361.89 165.39 c 1,15,-1
 98.68 165.39 l 1,16,17
 105.027 133.549 105.027 133.549 131.07 99.95 c 0,18,19
 152.88 71.78 152.88 71.78 202.78 71.78 c 0,20,21
 255.146 71.78 255.146 71.78 291.05 111 c 1,0,-1
293.1 248.53 m 1,22,23
 276.607 353.42 276.607 353.42 201.01 353.42 c 0,24,25
 124.709 353.42 124.709 353.42 100.25 248.53 c 1,26,-1
 293.1 248.53 l 1,22,23
EndSplineSet
EndChar

StartChar: f
Encoding: 102 102 73
Width: 315
Flags: W
HStem: 0 21G<96.29 182.73> 332 78<51.79 96.29 184.51 264.83>
VStem: 96.29 86.44<0 330> 99.8398 84.6699<410 526.993>
LayerCount: 2
Fore
SplineSet
96.29 0 m 1,0,-1
 96.29 332 l 5,1,-1
 51.79 332 l 5,2,-1
 51.79 410 l 5,3,-1
 99.8398 410 l 4,4,5
 99.8398 642 99.8398 642 233.68 642 c 0,6,7
 257.44 642 257.44 642 276.27 632.997 c 128,-1,8
 295.1 623.995 295.1 623.995 302.21 622 c 1,9,-1
 259.49 547 l 1,10,-1
 244.37 556 l 1,11,12
 214.76 556 214.76 556 199.63 528 c 128,-1,13
 184.51 499.995 184.51 499.995 184.51 410 c 5,14,-1
 264.83 410 l 5,15,-1
 264.83 330 l 5,16,-1
 182.73 330 l 5,17,-1
 182.73 0 l 1,18,-1
 96.29 0 l 1,0,-1
EndSplineSet
EndChar

StartChar: g
Encoding: 103 103 74
Width: 411
Flags: MW
HStem: -217.589 85.5106 4.91116 85.49 337.519 88.6624<157.277 260.428>
VStem: 44.9879 84.151 301.571 85.8917<-92.638 0 0 55 122.379 299.752 359 403>
LayerCount: 2
Fore
SplineSet
126.139 216.062 m 0,0,1
 126.139 90.4033 126.139 90.4033 212.355 90.4033 c 128,-1,2
 298.571 90.4033 298.571 90.4033 298.571 203.701 c 0,3,4
 298.571 337.519 298.571 337.519 217.283 337.519 c 0,5,6
 126.139 337.519 126.139 337.519 126.139 216.062 c 0,0,1
382.45 0 m 6,7,8
 382.45 -103.276 382.45 -103.276 317.48 -164 c 4,9,10
 279.94 -200.02 279.94 -200.02 204.95 -200.02 c 4,11,12
 141.317 -200.02 141.317 -200.02 98.54 -171 c 6,13,-1
 51.3701 -139 l 5,14,-1
 83.41 -73 l 5,15,16
 168 -122 168 -122 207.12 -122 c 4,17,18
 301.46 -122 301.46 -122 301.46 -34 c 5,19,-1
 301.46 55 l 5,20,21
 281.615 11 281.615 11 211.57 11 c 4,22,23
 49.9475 11 49.9475 11 49.9475 215.5 c 132,-1,24
 49.9475 420 49.9475 420 220.03 420 c 4,25,26
 262.002 420 262.002 420 298.79 359 c 5,27,-1
 298.79 403 l 5,28,-1
 382.45 403 l 5,29,-1
 382.45 0 l 6,7,8
EndSplineSet
EndChar

StartChar: h
Encoding: 104 104 75
Width: 406
Flags: MW
HStem: 0 21G<72.34 162.33 72.34 72.34 322.11 415.66 322.11 322.11> 339 86
VStem: 70.34 91.99 322.11 97.55
LayerCount: 2
Fore
SplineSet
283.11 0 m 1,0,1
 283.31 128.049 283.31 128.049 283.31 242.508 c 0,2,3
 283.31 350.004 283.31 350.004 203.32 350.004 c 128,-1,4
 123.33 350.004 123.33 350.004 123.33 239 c 1,5,-1
 123.33 0 l 1,6,-1
 37.3398 0 l 1,7,-1
 37.3398 748 l 1,8,-1
 125.11 748 l 1,9,-1
 125.11 379 l 1,10,11
 166.48 436 166.48 436 220.54 436 c 0,12,13
 373.66 436 373.66 436 373.66 269 c 2,14,-1
 373.66 0 l 1,15,-1
 283.11 0 l 1,0,1
EndSplineSet
EndChar

StartChar: i
Encoding: 105 105 76
Width: 152
Flags: W
HStem: 0 21G<66.12 146.21 66.12 66.12>
VStem: 64.33 81.88
LayerCount: 2
Fore
SplineSet
49.46 480 m 128,-1,1
 34.7803 493.99 34.7803 493.99 34.7803 518 c 128,-1,2
 34.7803 542 34.7803 542 49.46 555.75 c 128,-1,3
 64.1445 569.505 64.1445 569.505 81.5 569.5 c 128,-1,4
 98.8555 569.5 98.8555 569.5 113.54 556.75 c 128,-1,5
 128.225 544 128.225 544 128.23 519.5 c 128,-1,6
 128.23 495.005 128.23 495.005 113.54 480.5 c 128,-1,7
 98.8555 465.995 98.8555 465.995 81.5 466 c 128,-1,0
 64.1445 466 64.1445 466 49.46 480 c 128,-1,1
38.3301 410 m 1,8,-1
 119.21 410 l 1,9,-1
 119.21 0 l 1,10,-1
 38.1201 0 l 1,11,-1
 38.3301 410 l 1,8,-1
EndSplineSet
EndChar

StartChar: j
Encoding: 106 106 77
Width: 196
Flags: W
HStem: 402 20G<64.55 146.43 146.43 146.43>
VStem: 64.56 81.88<-116 422>
LayerCount: 2
Fore
SplineSet
62.78 535 m 0,0,1
 62.78 557.995 62.78 557.995 77.46 571.75 c 128,-1,2
 92.145 585.505 92.145 585.505 109.5 585.5 c 128,-1,3
 126.855 585.5 126.855 585.5 141.54 572.75 c 128,-1,4
 156.225 560 156.225 560 156.23 536 c 0,5,6
 156.23 511.01 156.23 511.01 141.54 496.5 c 128,-1,7
 126.855 481.995 126.855 481.995 109.5 482 c 128,-1,8
 92.145 482 92.145 482 77.46 496 c 128,-1,9
 62.775 509.995 62.775 509.995 62.78 535 c 0,0,1
64.55 422 m 1,10,-1
 146.43 422 l 1,11,-1
 146.43 -116 l 1,12,-1
 64.55 -116 l 1,13,-1
 64.55 422 l 1,10,-1
EndSplineSet
EndChar

StartChar: k
Encoding: 107 107 78
Width: 465
Flags: W
LayerCount: 2
Fore
SplineSet
156.26 748 m 1,0,-1
 156.26 238 l 1,1,-1
 204.32 293 l 1,2,-1
 321.8 424 l 1,3,-1
 426.82 424 l 1,4,-1
 252.38 227 l 1,5,-1
 453.52 0 l 1,6,-1
 348.49 0 l 1,7,-1
 204.32 161 l 1,8,-1
 155.37 216 l 1,9,-1
 155.37 0 l 1,10,-1
 73.49 0 l 1,11,-1
 73.49 748 l 1,12,-1
 156.26 748 l 1,0,-1
EndSplineSet
EndChar

StartChar: l
Encoding: 108 108 79
Width: 173
Flags: MW
HStem: 0 21G<45.3 125.7 45.3 45.3> 762 20G<45.3 125.7 125.7 125.7>
VStem: 60.3 87.41
LayerCount: 2
Fore
SplineSet
90 0 m 1,0,-1
 42.2998 0 l 1,1,-1
 42.2998 782 l 1,2,-1
 125.7 782 l 1,3,-1
 125.7 0 l 1,4,-1
 90 0 l 1,0,-1
EndSplineSet
EndChar

StartChar: m
Encoding: 109 109 80
Width: 596
Flags: W
HStem: 0 21G<33.53 116.85 259.05 343.8 483.54 564.43> 334 91<322.239 503.901> 340.5 81.5703<97.4283 279.93>
VStem: 33.53 83.3196<0 375.75 409.91 409.91> 259.05 84.75<0 367.3> 483.54 80.8896<0 364.553>
LayerCount: 2
Fore
SplineSet
312.42 348.5 m 1,0,1
 330 425 330 425 420 425 c 0,2,3
 491.988 425 491.988 425 534 371 c 0,4,5
 564.43 331.887 564.43 331.887 564.43 223 c 2,6,-1
 564.43 0 l 1,7,-1
 483.54 0 l 1,8,-1
 483.54 223 l 2,9,10
 483.54 334 483.54 334 415.67 334 c 0,11,12
 343.8 334 343.8 334 343.8 223 c 2,13,-1
 343.8 0 l 1,14,-1
 259.05 0 l 1,15,-1
 259.05 223 l 2,16,17
 259.05 340.5 259.05 340.5 189.45 340.5 c 0,18,19
 116.85 340.5 116.85 340.5 116.85 223 c 2,20,-1
 116.85 0 l 1,21,-1
 33.53 0 l 1,22,-1
 33.53 409.91 l 1,23,-1
 118.63 409.91 l 1,24,-1
 118.63 368 l 1,25,26
 124.018 422.07 124.018 422.07 212.65 422.07 c 0,27,28
 288.016 422.07 288.016 422.07 312.42 348.5 c 1,0,1
EndSplineSet
EndChar

StartChar: n
Encoding: 110 110 81
Width: 368
Flags: MW
HStem: 0 21G<24.52 115.58 24.52 24.52 257.17 346.14 257.17 257.17> 333.5 93.5<180.58 216.165>
VStem: 55.52 95.06 296.16 89.08
LayerCount: 2
Fore
SplineSet
257.17 0 m 1,0,-1
 257.17 226.06 l 2,1,2
 257.17 333.505 257.17 333.505 192.66 333.5 c 0,3,4
 106.58 333.5 106.58 333.5 106.58 226.06 c 6,5,-1
 106.58 0 l 5,6,-1
 24.52 0 l 1,7,-1
 24.52 409.91 l 1,8,-1
 103.62 409.91 l 5,9,-1
 103.62 360 l 5,10,11
 125.325 427.005 125.325 427.005 200.71 427 c 0,12,13
 266.59 427 266.59 427 305.57 379.78 c 0,14,15
 346.14 330.64 346.14 330.64 346.14 226.06 c 2,16,-1
 346.14 0 l 1,17,-1
 257.17 0 l 1,0,-1
EndSplineSet
EndChar

StartChar: o
Encoding: 111 111 82
Width: 446
Flags: MW
HStem: -14.8319 81.804 353.378 81.5796
VStem: 17.9676 89.3214 346.071 85.3536
LayerCount: 2
Fore
SplineSet
297.824 326.654 m 0,0,1
 267.836 353.38 267.836 353.38 227.268 353.38 c 128,-1,2
 186.7 353.38 186.7 353.38 158.61 331.574 c 128,-1,3
 130.521 309.768 130.521 309.768 117.902 278.061 c 0,4,5
 91.1424 210.82 91.1424 210.82 117.376 140.841 c 0,6,7
 129.272 109.112 129.272 109.112 156.656 88.0352 c 128,-1,8
 184.007 66.9717 184.007 66.9717 221.518 66.9717 c 0,9,10
 279.275 66.9717 279.275 66.9717 313.022 111.189 c 0,11,12
 344.071 151.872 344.071 151.872 344.071 213.964 c 0,13,14
 344.071 285.438 344.071 285.438 297.824 326.654 c 0,0,1
339.169 398.021 m 128,-1,16
 386.22 365.49 386.22 365.49 406.815 316.656 c 128,-1,17
 427.41 267.823 427.41 267.823 427.41 210.56 c 128,-1,18
 427.41 153.239 427.41 153.239 405.46 103.917 c 128,-1,19
 383.51 54.595 383.51 54.595 335.585 22.0863 c 128,-1,20
 287.66 -10.4225 287.66 -10.4225 223.185 -10.4225 c 128,-1,21
 158.71 -10.4225 158.71 -10.4225 110.755 22.1038 c 128,-1,22
 62.8 54.63 62.8 54.63 42.43 103.975 c 128,-1,23
 22.06 153.32 22.06 153.32 22.06 210.56 c 128,-1,24
 22.06 267.92 22.06 267.92 44.67 316.67 c 128,-1,25
 67.32 365.54 67.32 365.54 115.235 398.046 c 128,-1,26
 163.15 430.552 163.15 430.552 227.634 430.552 c 128,-1,15
 292.118 430.552 292.118 430.552 339.169 398.021 c 128,-1,16
EndSplineSet
EndChar

StartChar: p
Encoding: 112 112 83
Width: 398
Flags: MW
HStem: -188.67 20.35G 400.49 19.38G
VStem: 78.27 75.37 354.05 79.32
LayerCount: 2
Fore
SplineSet
201.98 -8.7 m 0,0,1
 146.825 -8.69997 146.825 -8.69997 110.72 46 c 1,2,-1
 110.72 -201 l 1,3,-1
 33.84 -201 l 1,4,-1
 33.84 410 l 1,5,-1
 111.61 410 l 1,6,-1
 111.61 357 l 1,7,8
 141.475 419.7 141.475 419.7 207.68 420.7 c 0,9,10
 362.135 420.7 362.135 420.7 362.14 206 c 128,-1,11
 362.14 -8.69501 362.14 -8.69501 201.98 -8.7 c 0,0,1
117.03 208.85 m 128,-1,13
 117.03 68.345 117.03 68.345 203.77 68.3401 c 0,14,15
 289.27 68.3401 289.27 68.3401 289.27 208.85 c 128,-1,16
 289.27 349.355 289.27 349.355 205.52 349.36 c 0,17,12
 117.035 349.36 117.035 349.36 117.03 208.85 c 128,-1,13
EndSplineSet
EndChar

StartChar: q
Encoding: 113 113 84
Width: 392
Flags: MW
HStem: -188.55 20.37G 349.33 81.74
VStem: 82.32 71.46 333.6 68.65
LayerCount: 2
Fore
SplineSet
207.18 420.07 m 0,0,1
 254.265 420.07 254.265 420.07 273.88 365.81 c 1,2,-1
 273.88 409.91 l 1,3,-1
 354.87 409.91 l 1,4,-1
 354.87 -201 l 1,5,-1
 275.26 -201 l 1,6,-1
 275.26 35.34 l 1,7,8
 262.18 -7.29 262.18 -7.29 200.81 -10.28 c 0,9,10
 23.645 -10.28 23.645 -10.28 23.64 204.9 c 128,-1,11
 23.64 420.075 23.64 420.075 207.18 420.07 c 0,0,1
203.85 70.58 m 0,12,13
 275.625 70.58 275.625 70.58 275.63 214.47 c 0,14,15
 275.63 339.33 275.63 339.33 203.47 339.33 c 0,16,17
 103.945 339.33 103.945 339.33 103.95 205.46 c 0,18,19
 103.95 70.58 103.95 70.58 203.85 70.58 c 0,12,13
EndSplineSet
EndChar

StartChar: r
Encoding: 114 114 85
Width: 251
Flags: MW
HStem: 0 21G<28.79 110.67 28.79 28.79> 340 88<194.665 228 228 229>
VStem: 28.79 81.88<0 189 0 410>
LayerCount: 2
Fore
SplineSet
229 428 m 1,0,-1
 229 340 l 1,1,-1
 228 340 l 2,2,3
 110.67 340 110.67 340 110.67 189 c 2,4,-1
 110.67 0 l 1,5,-1
 28.79 0 l 1,6,-1
 28.79 410 l 1,7,-1
 111.56 410 l 1,8,-1
 111.56 345 l 1,9,-1
 111.56 346 l 1,10,11
 125.99 428.005 125.99 428.005 229 428 c 1,0,-1
EndSplineSet
EndChar

StartChar: s
Encoding: 115 115 86
Width: 310
Flags: MW
HStem: -10.07 85.54<105.927 213.968>
VStem: 39.36 240.08
LayerCount: 2
Fore
SplineSet
24.33 71.67 m 1,0,-1
 82.28 123.94 l 1,1,2
 114.5 75.47 114.5 75.47 161.01 75.47 c 0,3,4
 221.28 75.47 221.28 75.47 221.28 123.94 c 0,5,6
 221.28 166.647 221.28 166.647 151.77 189.52 c 0,7,8
 48.6018 223.469 48.6018 223.469 58.25 328.4 c 0,9,10
 67.1513 428.095 67.1513 428.095 189.27 431.87 c 0,11,12
 242 433.5 242 433.5 283.17 388.79 c 1,13,-1
 248.91 328.82 l 1,14,15
 213.5 361.5 213.5 361.5 177.21 358.41 c 0,16,17
 128.238 354.887 128.238 354.887 133.46 304.99 c 0,18,19
 137.087 270.332 137.087 270.332 205.475 245.447 c 0,20,21
 273.185 220.81 273.185 220.81 290.36 176.69 c 0,22,23
 318.83 105.605 318.83 105.605 281.992 47.7675 c 128,-1,24
 245.155 -10.07 245.155 -10.07 169.82 -10.07 c 0,25,26
 56.435 -10.07 56.435 -10.07 24.33 71.67 c 1,0,-1
EndSplineSet
EndChar

StartChar: t
Encoding: 116 116 87
Width: 229
Flags: W
HStem: 0 21G<78.1 159.84 78.1 78.1> 317.5 92.5<160.73 208.99 33.27 159.84> 320.5 89.5<33.27 78.1 33.27 81.65>
VStem: 78.1 81.74<0 317.5> 81.65 79.08<410 598.26>
LayerCount: 2
Fore
SplineSet
160.73 410 m 5,0,-1
 208.99 410 l 5,1,-1
 208.99 317.5 l 5,2,-1
 159.84 317.5 l 5,3,-1
 159.84 0 l 1,4,-1
 78.1 0 l 1,5,-1
 78.1 320.5 l 5,6,-1
 33.27 320.5 l 5,7,-1
 33.27 410 l 5,8,-1
 81.65 410 l 5,9,-1
 81.65 598.26 l 1,10,-1
 160.73 627.43 l 1,11,-1
 160.73 410 l 5,0,-1
EndSplineSet
EndChar

StartChar: u
Encoding: 117 117 88
Width: 373
Flags: W
HStem: 0 21G<251.1 339.76 251.1 251.1> 390 20G<24.24 112.9 253.77 339.76>
VStem: 54.24 83.66
LayerCount: 2
Fore
SplineSet
24.24 199 m 2,0,-1
 24.24 409.91 l 1,1,-1
 112.9 409.91 l 1,2,-1
 112.9 190 l 2,3,4
 112.9 72.31 112.9 72.31 188.41 72.31 c 0,5,6
 253.765 72.31 253.765 72.31 253.77 216 c 2,7,-1
 253.77 409.91 l 1,8,-1
 339.76 409.91 l 1,9,-1
 339.76 0 l 1,10,-1
 251.1 0 l 1,11,-1
 251.1 51 l 1,12,13
 229.425 -10.005 229.425 -10.005 156.82 -10 c 0,14,15
 24.235 -10 24.235 -10 24.24 199 c 2,0,-1
EndSplineSet
EndChar

StartChar: v
Encoding: 118 118 89
Width: 357
Flags: MW
HStem: -48.82 458.73
VStem: -0.18 355.19
LayerCount: 2
Fore
SplineSet
85.07 409.91 m 1,0,-1
 85.64 409.91 l 1,1,-1
 173.59 182.95 l 1,2,-1
 270.29 409.91 l 1,3,-1
 355 409.91 l 1,4,-1
 172.48 -48.82 l 1,5,-1
 -0.18 409.91 l 1,6,-1
 85.07 409.91 l 1,0,-1
EndSplineSet
EndChar

StartChar: w
Encoding: 119 119 90
Width: 547
Flags: MW
HStem: -33.08 455.93
LayerCount: 2
Fore
SplineSet
6.97 410 m 1,0,-1
 86.26 410 l 1,1,-1
 187.16 157.24 l 1,2,-1
 274.42 380.1 l 1,3,-1
 363.68 157.24 l 1,4,-1
 463.62 410 l 1,5,-1
 541.87 410 l 1,6,-1
 373.64 -33.08 l 1,7,-1
 274.42 180.26 l 1,8,-1
 175.2 -33.08 l 1,9,-1
 6.97 410 l 1,0,-1
EndSplineSet
EndChar

StartChar: x
Encoding: 120 120 91
Width: 371
Flags: MW
HStem: 0 21G<0.900002 87.04 0.900002 0.900002 281.38 371.07 281.38 281.38 371.07 371.77>
VStem: 0.9 370.87
LayerCount: 2
Fore
SplineSet
127.04 228.31 m 1,0,-1
 21.85 409.91 l 1,1,-1
 118.41 409.91 l 1,2,-1
 184.26 289.27 l 1,3,-1
 254.72 409.91 l 1,4,-1
 344.97 409.91 l 1,5,-1
 237.63 227.18 l 1,6,-1
 371.77 0 l 1,7,-1
 371.07 0 l 1,8,-1
 281.38 0 l 1,9,-1
 183.4 171.19 l 1,10,-1
 87.04 0 l 1,11,-1
 0.900002 0 l 1,12,-1
 127.04 228.31 l 1,0,-1
EndSplineSet
EndChar

StartChar: y
Encoding: 121 121 92
Width: 422
Flags: MW
VStem: 2.24 382.1
LayerCount: 2
Fore
SplineSet
135 79 m 1,0,-1
 -4.75996 409.91 l 1,1,-1
 87.17 409.91 l 1,2,-1
 186.92 174.45 l 1,3,-1
 293.23 409.91 l 1,4,-1
 388.34 409.91 l 1,5,-1
 103.74 -198.93 l 1,6,-1
 7.55 -198.93 l 1,7,-1
 135 79 l 1,0,-1
EndSplineSet
EndChar

StartChar: z
Encoding: 122 122 93
Width: 357
Flags: MW
HStem: 0 83<137.46 340.39> 335 79<63.59 206.65>
VStem: 25.62 355.77
LayerCount: 2
Fore
SplineSet
63.59 337 m 1,0,-1
 63.59 414 l 1,1,-1
 335.05 414 l 1,2,-1
 137.46 81 l 1,3,-1
 340.39 81 l 1,4,-1
 340.39 0 l 1,5,-1
 -2.38 0 l 1,6,-1
 206.65 337 l 1,7,-1
 63.59 337 l 1,0,-1
EndSplineSet
EndChar

StartChar: asciitilde
Encoding: 126 126 94
Width: 470
Flags: W
LayerCount: 2
Fore
SplineSet
279.8 559 m 1,0,1
 286.025 545.005 286.025 545.005 298.49 543.5 c 128,-1,2
 310.95 542.001 310.95 542.001 318.96 552.5 c 128,-1,3
 326.968 562.998 326.968 562.998 320.74 577 c 1,4,-1
 320.74 577.5 l 2,5,6
 320.74 577.989 320.74 577.989 319.85 579 c 1,7,-1
 357.23 598 l 1,8,-1
 357.23 597 l 1,9,10
 366.131 572.983 366.131 572.983 361.68 552 c 128,-1,11
 357.225 531.002 357.225 531.002 341.21 519.5 c 128,-1,12
 325.21 508.009 325.21 508.009 306.95 504 c 128,-1,13
 288.709 499.998 288.709 499.998 270.9 509 c 128,-1,14
 253.095 518 253.095 518 244.2 539 c 1,15,-1
 279.8 559 l 1,0,1
244.2 539 m 1,16,17
 237.975 552.995 237.975 552.995 225.51 554.5 c 128,-1,18
 213.05 555.999 213.05 555.999 205.04 545.5 c 128,-1,19
 197.032 535.002 197.032 535.002 203.26 521 c 1,20,-1
 203.26 520.5 l 2,21,22
 203.26 520.011 203.26 520.011 204.15 519 c 1,23,-1
 166.77 500 l 1,24,-1
 166.77 501 l 1,25,26
 157.869 525.017 157.869 525.017 162.32 546 c 128,-1,27
 166.775 566.998 166.775 566.998 182.79 578.5 c 128,-1,28
 198.79 589.991 198.79 589.991 217.05 594 c 128,-1,29
 235.291 598.002 235.291 598.002 253.1 589 c 128,-1,30
 270.905 580 270.905 580 279.8 559 c 1,31,-1
 244.2 539 l 1,16,17
EndSplineSet
EndChar

StartChar: exclamdown
Encoding: 161 161 95
Width: 176
Flags: W
HStem: 0 21G<45.84 45.84 45.84 126.83> 676 20G<87.475 100.525>
VStem: 42.38 103.24 45.84 80.99<0 441>
LayerCount: 2
Fore
SplineSet
45.84 0 m 1,0,-1
 45.84 441 l 1,1,-1
 126.83 441 l 1,2,-1
 126.83 0 l 1,3,-1
 45.84 0 l 1,0,-1
42.38 634 m 0,4,5
 42.38 662.005 42.38 662.005 58.4 679 c 128,-1,6
 74.4247 696 74.4247 696 94 696 c 128,-1,7
 113.585 696 113.585 696 129.6 678.5 c 128,-1,8
 145.62 660.995 145.62 660.995 145.62 632 c 0,9,10
 145.62 605 145.62 605 129.6 590.25 c 128,-1,11
 113.575 575.5 113.575 575.5 94 575.5 c 128,-1,12
 74.42 575.5 74.42 575.5 58.4 591.25 c 128,-1,13
 42.38 607 42.38 607 42.38 634 c 0,4,5
EndSplineSet
EndChar

StartChar: yen
Encoding: 165 165 96
Width: 570
Flags: MW
HStem: 112.02 87.98 292.02 87.98
VStem: 261.23 88.46<0 210.02 271.01 317.02>
LayerCount: 2
Fore
SplineSet
47.65 692 m 1,0,-1
 142.38 692 l 1,1,-1
 305.02 418.01 l 1,2,-1
 464.07 692 l 1,3,-1
 558.79 692 l 1,4,-1
 376.55 380.01 l 1,5,-1
 521.26 380.01 l 1,6,-1
 521.26 317.02 l 1,7,-1
 349.68 317.02 l 1,8,-1
 349.68 271.01 l 1,9,-1
 523.93 271.01 l 1,10,-1
 523.93 210.02 l 1,11,-1
 349.68 210.02 l 1,12,-1
 349.68 0 l 1,13,-1
 261.23 0 l 1,14,-1
 261.23 210.02 l 1,15,-1
 76.25 210.02 l 1,16,-1
 76.25 271.01 l 1,17,-1
 261.23 271.01 l 1,18,-1
 261.23 317.02 l 1,19,-1
 73.55 317.02 l 1,20,-1
 73.55 380.01 l 1,21,-1
 232.48 380.01 l 1,22,-1
 47.65 692 l 1,0,-1
EndSplineSet
EndChar

StartChar: scaron
Encoding: 259 353 97
Width: 616
Flags: MW
HStem: 740 119<249.625 262.68 436.32 449.375>
VStem: 204.54 103.24<757.019 842.497> 391.22 103.24<757.019 842.497>
LayerCount: 2
Fore
SplineSet
204.54 800 m 0,0,1
 204.54 827 204.54 827 220.55 843 c 128,-1,2
 236.58 859 236.58 859 256.15 859 c 128,-1,3
 275.725 859 275.725 859 291.76 844 c 128,-1,4
 307.765 829 307.765 829 307.77 802 c 0,5,6
 307.77 773.005 307.77 773.005 291.76 756.5 c 128,-1,7
 275.725 740 275.725 740 256.15 740 c 128,-1,8
 236.58 740 236.58 740 220.55 756 c 128,-1,9
 204.54 772.01 204.54 772.01 204.54 800 c 0,0,1
391.23 800 m 0,10,11
 391.23 827 391.23 827 407.24 843 c 128,-1,12
 423.27 859 423.27 859 442.85 859 c 128,-1,13
 462.415 859 462.415 859 478.45 844 c 128,-1,14
 494.455 829 494.455 829 494.46 802 c 0,15,16
 494.46 773.005 494.46 773.005 478.45 756.5 c 128,-1,17
 462.415 740 462.415 740 442.85 740 c 128,-1,18
 423.27 740 423.27 740 407.24 756 c 128,-1,19
 391.23 772.01 391.23 772.01 391.23 800 c 0,10,11
EndSplineSet
EndChar

StartChar: guillemotleft
Encoding: 171 171 98
Width: 564
Flags: W
LayerCount: 2
Fore
SplineSet
421.39 428 m 1,0,-1
 421.39 341 l 1,1,-1
 351.98 288 l 1,2,-1
 421.39 229 l 1,3,-1
 421.39 138 l 1,4,-1
 240.73 289 l 1,5,-1
 421.39 428 l 1,0,-1
237.16 430 m 1,6,-1
 237.16 344 l 1,7,-1
 167.74 290 l 1,8,-1
 237.16 232 l 1,9,-1
 237.16 140 l 1,10,-1
 55.61 292 l 1,11,-1
 237.16 430 l 1,6,-1
EndSplineSet
EndChar

StartChar: degree
Encoding: 260 176 99
Width: 529
Flags: W
LayerCount: 2
Fore
SplineSet
258.64 802 m 0,0,1
 258.64 787.875 258.64 787.875 269.32 782.16 c 128,-1,2
 279.998 776.431 279.998 776.431 291.12 782 c 128,-1,3
 302.25 787.565 302.25 787.565 302.25 803 c 0,4,5
 302.25 818.005 302.25 818.005 291.12 824.5 c 128,-1,6
 279.994 831.001 279.994 831.001 269.32 824 c 128,-1,7
 258.64 816.995 258.64 816.995 258.64 802 c 0,0,1
217.7 801 m 0,8,9
 217.7 832.995 217.7 832.995 237.28 849.5 c 128,-1,10
 256.855 866 256.855 866 280 866 c 128,-1,11
 303.145 866 303.145 866 322.72 847 c 128,-1,12
 342.295 827.995 342.295 827.995 342.3 799 c 0,13,14
 342.3 768.01 342.3 768.01 322.72 749 c 128,-1,15
 303.145 729.995 303.145 729.995 280 730 c 128,-1,16
 256.855 730 256.855 730 237.28 748.5 c 128,-1,17
 217.705 766.995 217.705 766.995 217.7 801 c 0,8,9
EndSplineSet
EndChar

StartChar: plusminus
Encoding: 261 177 100
Width: 467
Flags: W
LayerCount: 2
Fore
SplineSet
420.66 127 m 1,0,-1
 75.34 127 l 1,1,-1
 75.34 218 l 1,2,-1
 420.66 218 l 1,3,-1
 420.66 127 l 1,0,-1
409.09 474 m 1,4,-1
 288.05 474 l 1,5,-1
 288.05 318 l 1,6,-1
 207.95 318 l 1,7,-1
 207.95 473 l 1,8,-1
 82.46 473 l 1,9,-1
 82.46 561 l 1,10,-1
 207.06 561 l 1,11,-1
 207.06 707 l 1,12,-1
 287.16 707 l 1,13,-1
 287.16 564 l 1,14,-1
 409.09 564 l 1,15,-1
 409.09 474 l 1,4,-1
EndSplineSet
EndChar

StartChar: uni00B2
Encoding: 262 178 101
Width: 386
Flags: W
LayerCount: 2
Fore
SplineSet
163.61 525 m 1,0,-1
 298.89 723 l 2,1,2
 322.019 763.003 322.019 763.003 317.58 794 c 128,-1,3
 313.125 825.005 313.125 825.005 282.87 833 c 0,4,5
 267.745 837.002 267.745 837.002 248.6 828 c 128,-1,6
 229.46 819 229.46 819 223.24 798 c 1,7,-1
 188.52 823 l 1,8,9
 211.665 875.995 211.665 875.995 273.96 876 c 0,10,11
 318.465 876 318.465 876 340.71 849 c 128,-1,12
 362.97 822 362.97 822 358.07 778 c 128,-1,13
 353.18 734.005 353.18 734.005 322.03 685 c 2,14,-1
 245.49 571 l 1,15,-1
 367.41 571 l 1,16,-1
 367.41 525 l 1,17,-1
 208.11 525 l 1,18,-1
 163.61 525 l 1,0,-1
EndSplineSet
EndChar

StartChar: uni00B3
Encoding: 263 179 102
Width: 368
Flags: W
LayerCount: 2
Fore
SplineSet
367.394 865.521 m 1,0,-1
 369.191 865.521 l 1,1,-1
 368.243 863.993 l 1,2,-1
 275.417 714.48 l 1,3,4
 307.223 713.604 307.223 713.604 333.336 681.553 c 0,5,6
 360.08 648.727 360.08 648.727 360.08 611.169 c 0,7,8
 360.08 567.623 360.08 567.623 326.156 530.794 c 0,9,10
 301.676 504.217 301.676 504.217 252.334 504.217 c 0,11,12
 252.017 504.217 252.017 504.217 251.387 504.222 c 128,-1,13
 250.758 504.227 250.758 504.227 250.443 504.227 c 0,14,15
 201.414 504.236 201.414 504.236 156.066 529.547 c 2,16,-1
 155.17 530.047 l 1,17,-1
 155.693 530.93 l 1,18,-1
 176.141 565.403 l 1,19,-1
 176.639 566.243 l 1,20,21
 214.431 545.06 214.431 545.06 252.03 543.18 c 0,22,23
 253.024 543.13 253.024 543.13 254.032 543.13 c 0,24,25
 274.322 543.13 274.322 543.13 297.259 561.323 c 0,26,27
 318.372 578.072 318.372 578.072 318.372 613.982 c 0,28,29
 318.372 632.672 318.372 632.672 298.098 659.924 c 0,30,31
 279.442 685 279.442 685 211 685 c 2,32,-1
 209.209 685 l 1,33,-1
 210.148 686.524 l 1,34,-1
 294.075 822.746 l 1,35,-1
 185.349 822.746 l 1,36,-1
 184.349 822.746 l 1,37,-1
 184.349 823.746 l 1,38,-1
 184.349 864.521 l 1,39,-1
 184.349 865.521 l 1,40,-1
 185.349 865.521 l 1,41,-1
 367.394 865.521 l 1,0,-1
EndSplineSet
EndChar

StartChar: Zcaron
Encoding: 264 381 103
Width: 932
Flags: W
LayerCount: 2
Fore
SplineSet
419.71 985 m 1,0,-1
 474.89 912 l 1,1,-1
 339.61 791 l 1,2,-1
 295.11 838 l 1,3,-1
 419.71 985 l 1,0,-1
EndSplineSet
EndChar

StartChar: uni00B9
Encoding: 265 185 104
Width: 272
Flags: W
LayerCount: 2
Fore
SplineSet
174.33 786 m 1,0,-1
 162.76 772 l 1,1,-1
 135.17 800 l 1,2,-1
 194.8 863 l 1,3,-1
 217.05 890 l 1,4,-1
 217.05 832 l 1,5,-1
 217.94 832 l 1,6,-1
 217.94 569 l 1,7,-1
 218.83 569 l 1,8,-1
 218.83 530 l 1,9,-1
 175.22 530 l 1,10,-1
 175.22 569 l 1,11,-1
 174.33 786 l 1,0,-1
EndSplineSet
EndChar

StartChar: guillemotright
Encoding: 187 187 105
Width: 564
Flags: W
LayerCount: 2
Fore
SplineSet
56.61 428 m 1,0,-1
 238.16 289 l 1,1,-1
 56.61 138 l 1,2,-1
 56.61 229 l 1,3,-1
 126.03 288 l 1,4,-1
 56.61 341 l 1,5,-1
 56.61 428 l 1,0,-1
241.73 430 m 1,6,-1
 422.39 292 l 1,7,-1
 241.73 140 l 1,8,-1
 241.73 232 l 1,9,-1
 311.14 290 l 1,10,-1
 241.73 344 l 1,11,-1
 241.73 430 l 1,6,-1
EndSplineSet
EndChar

StartChar: questiondown
Encoding: 191 191 106
Width: 517
Flags: W
LayerCount: 2
Fore
SplineSet
297.14 77 m 0,0,1
 324.725 77 324.725 77 344.31 86.5 c 128,-1,2
 363.881 95.9933 363.881 95.9933 374.12 110 c 128,-1,3
 384.401 124.044 384.401 124.044 397.71 140 c 1,4,-1
 435.09 71 l 1,5,6
 406.605 35 406.605 35 371.01 17.5 c 128,-1,7
 335.415 -0.00500107 335.415 -0.00500107 285.57 -1.90735e-06 c 0,8,9
 206.355 -1.90735e-06 206.355 -1.90735e-06 159.63 50 c 128,-1,10
 112.92 99.995 112.92 99.995 112.91 182 c 0,11,12
 112.91 222.995 112.91 222.995 128.93 258.5 c 128,-1,13
 144.951 294.007 144.951 294.007 181.44 336 c 2,14,-1
 218.82 380 l 2,15,16
 251.75 420.012 251.75 420.012 258.42 440.5 c 128,-1,17
 265.1 460.974 265.1 460.974 265.1 513 c 2,18,-1
 265.1 535 l 1,19,-1
 351.43 535 l 1,20,-1
 351.43 502 l 2,21,22
 351.43 443.978 351.43 443.978 336.74 411 c 128,-1,23
 322.044 377.976 322.044 377.976 288.24 339 c 2,24,-1
 249.97 293 l 2,25,26
 242.807 283.952 242.807 283.952 234.84 276 c 128,-1,27
 226.856 268.031 226.856 268.031 219.71 257.5 c 128,-1,28
 212.599 247.021 212.599 247.021 206.8 237 c 128,-1,29
 201.01 226.97 201.01 226.97 197.9 215.5 c 128,-1,30
 194.79 203.976 194.79 203.976 194.79 192 c 0,31,32
 194.79 76.995 194.79 76.995 297.14 77 c 0,0,1
359.44 690 m 0,33,34
 359.44 663 359.44 663 343.42 647.25 c 128,-1,35
 327.4 631.5 327.4 631.5 307.82 631.5 c 128,-1,36
 288.245 631.5 288.245 631.5 272.22 646.25 c 128,-1,37
 256.2 660.995 256.2 660.995 256.2 688 c 0,38,39
 256.2 716.995 256.2 716.995 272.22 733.5 c 128,-1,40
 288.24 750 288.24 750 307.82 750 c 128,-1,41
 327.405 750 327.405 750 343.42 734 c 128,-1,42
 359.44 717.995 359.44 717.995 359.44 690 c 0,33,34
EndSplineSet
EndChar

StartChar: multiply
Encoding: 284 215 125
Width: 467
Flags: W
LayerCount: 2
Fore
SplineSet
387.84 457 m 1,0,-1
 302.4 360 l 1,1,-1
 400.3 251 l 1,2,-1
 343.34 187 l 1,3,-1
 245.44 296 l 1,4,-1
 158.22 196 l 1,5,-1
 101.26 260 l 1,6,-1
 191.15 361 l 1,7,-1
 97.7 461 l 1,8,-1
 154.66 525 l 1,9,-1
 245.44 424 l 1,10,-1
 330.88 521 l 1,11,-1
 387.84 457 l 1,0,-1
EndSplineSet
EndChar

StartChar: dotlessi
Encoding: 245 305 158
Width: 195
Flags: W
LayerCount: 2
Fore
SplineSet
64.06 433 m 1,0,-1
 145.94 433 l 1,1,-1
 145.94 0 l 1,2,-1
 65.84 0 l 1,3,-1
 64.06 433 l 1,0,-1
EndSplineSet
EndChar

StartChar: uni030A
Encoding: 325 778 167
Width: 145
Flags: W
LayerCount: 2
Fore
SplineSet
54.64 791 m 128,-1,1
 54.64 774.995 54.64 774.995 65.32 768.5 c 128,-1,2
 76.0106 761.999 76.0106 761.999 87.12 769 c 128,-1,3
 98.25 776.005 98.25 776.005 98.25 792 c 0,4,5
 98.25 807.005 98.25 807.005 87.12 813.5 c 128,-1,6
 76.0024 819.997 76.0024 819.997 65.32 813.5 c 128,-1,0
 54.64 807.005 54.64 807.005 54.64 791 c 128,-1,1
13.7 790 m 0,7,8
 13.7 823 13.7 823 33.28 839 c 128,-1,9
 52.855 855.005 52.855 855.005 76 855 c 128,-1,10
 99.145 855 99.145 855 118.72 836 c 128,-1,11
 138.295 816.995 138.295 816.995 138.3 788 c 0,12,13
 138.3 756.995 138.3 756.995 118.72 738.25 c 128,-1,14
 99.145 719.5 99.145 719.5 76 719.5 c 128,-1,15
 52.855 719.5 52.855 719.5 33.28 737.75 c 128,-1,16
 13.7 756.01 13.7 756.01 13.7 790 c 0,7,8
EndSplineSet
EndChar

StartChar: quoteleft
Encoding: 96 8216 168
Width: 175
Flags: W
LayerCount: 2
Fore
SplineSet
122.25 620 m 0,0,1
 124.919 601.003 124.919 601.003 113.79 586.5 c 128,-1,2
 102.683 572.006 102.683 572.006 88.43 567.5 c 128,-1,3
 74.1836 563.001 74.1836 563.001 59.5 575 c 128,-1,4
 44.815 587 44.815 587 44.82 616 c 0,5,6
 44.82 661.014 44.82 661.014 65.29 699 c 128,-1,7
 85.7508 736.997 85.7508 736.997 109.79 746 c 1,8,9
 99.11 732.005 99.11 732.005 99.11 696 c 128,-1,10
 99.11 659.992 99.11 659.992 108.9 645 c 1,11,12
 122.25 634.005 122.25 634.005 122.25 620 c 0,0,1
EndSplineSet
EndChar

StartChar: quoteright
Encoding: 39 8217 169
Width: 177
Flags: W
LayerCount: 2
Fore
SplineSet
60.8 682 m 0,0,1
 60.8 701.005 60.8 701.005 68.81 716.5 c 128,-1,2
 76.82 731.995 76.82 731.995 90.62 737.5 c 128,-1,3
 104.403 743.004 104.403 743.004 118.65 732 c 128,-1,4
 132.9 721.005 132.9 721.005 137.34 693 c 0,5,6
 142.68 649.005 142.68 649.005 123.55 609 c 128,-1,7
 104.407 568.989 104.407 568.989 82.16 558 c 1,8,9
 88.39 573.979 88.39 573.979 88.39 611 c 128,-1,10
 88.39 648.005 88.39 648.005 74.6 658 c 128,-1,11
 60.8 668.005 60.8 668.005 60.8 682 c 0,0,1
EndSplineSet
EndChar

StartChar: quotedblleft
Encoding: 170 8220 170
Width: 275
Flags: W
LayerCount: 2
Fore
SplineSet
238.45 622 m 0,0,1
 238.45 603.992 238.45 603.992 228.66 589 c 128,-1,2
 218.865 574 218.865 574 204.18 570 c 128,-1,3
 189.5 565.992 189.5 565.992 174.82 578 c 128,-1,4
 160.135 590 160.135 590 160.13 618 c 0,5,6
 160.13 663.014 160.13 663.014 180.6 701 c 128,-1,7
 201.08 739.004 201.08 739.004 225.1 748 c 1,8,9
 214.87 732.505 214.87 732.505 214.87 696 c 128,-1,10
 214.87 659.499 214.87 659.499 224.21 648 c 1,11,12
 238.45 637.001 238.45 637.001 238.45 622 c 0,0,1
128.98 620 m 0,13,14
 131.648 601.009 131.648 601.009 120.53 586.5 c 128,-1,15
 109.407 572.004 109.407 572.004 95.16 567.5 c 128,-1,16
 80.925 563 80.925 563 66.24 575 c 128,-1,17
 51.55 586.992 51.55 586.992 51.55 616 c 0,18,19
 51.55 661.014 51.55 661.014 72.02 699 c 128,-1,20
 92.4996 737.004 92.4996 737.004 116.52 746 c 1,21,22
 105.84 732.005 105.84 732.005 105.84 696 c 128,-1,23
 105.84 659.992 105.84 659.992 115.63 645 c 1,24,25
 128.98 634.005 128.98 634.005 128.98 620 c 0,13,14
EndSplineSet
EndChar

StartChar: quotedblright
Encoding: 186 8221 171
Width: 337
Flags: W
LayerCount: 2
Fore
SplineSet
188.38 685 m 1,0,1
 184.812 702.99 184.812 702.99 194.61 719 c 128,-1,2
 204.386 734.998 204.386 734.998 218.19 740 c 128,-1,3
 231.988 744.994 231.988 744.994 246.23 734.5 c 128,-1,4
 260.465 724 260.465 724 264.92 696 c 0,5,6
 270.26 650.996 270.26 650.996 251.12 611.5 c 128,-1,7
 231.995 572.006 231.995 572.006 209.74 560 c 1,8,9
 215.97 576.018 215.97 576.018 215.97 613 c 128,-1,10
 215.97 650.005 215.97 650.005 202.17 661.03 c 128,-1,11
 188.385 672.055 188.385 672.055 188.38 685 c 1,0,1
68.23 682 m 0,12,13
 68.23 701.005 68.23 701.005 76.24 716.5 c 128,-1,14
 84.2487 731.992 84.2487 731.992 98.04 737.5 c 128,-1,15
 111.825 742.999 111.825 742.999 126.08 732 c 128,-1,16
 140.315 721.005 140.315 721.005 144.77 693 c 0,17,18
 150.11 649.005 150.11 649.005 130.97 609 c 128,-1,19
 111.848 569.002 111.848 569.002 89.59 558 c 1,20,21
 95.82 574.018 95.82 574.018 95.82 611 c 128,-1,22
 95.82 648.005 95.82 648.005 82.02 658 c 128,-1,23
 68.235 668.005 68.235 668.005 68.23 682 c 0,12,13
EndSplineSet
EndChar

StartChar: uniFB00
Encoding: 326 64256 172
Width: 482
Flags: W
LayerCount: 2
Fore
SplineSet
251.188 0 m 1,0,-1
 251.188 332 l 5,1,-1
 220 332 l 5,2,-1
 220 410 l 5,3,-1
 254.752 410 l 5,4,5
 254.752 490.346 254.752 490.346 264.617 528.358 c 1,6,7
 247.439 564.17 247.439 564.17 224 564 c 0,8,9
 153.018 563.484 153.018 563.484 153.018 410 c 5,10,-1
 206.674 410 l 5,11,-1
 206.674 330 l 5,12,-1
 151.23 330 l 5,13,-1
 151.23 0 l 1,14,-1
 64.4414 0 l 1,15,-1
 64.4414 332 l 5,16,-1
 19.7607 332 l 5,17,-1
 19.7607 410 l 5,18,-1
 68.0049 410 l 5,19,20
 68.0049 642 68.0049 642 221.387 642 c 0,21,22
 275 642 275 642 304.031 605.906 c 1,23,24
 336.128 642 336.128 642 389.132 642 c 0,25,26
 409.491 642 409.491 642 429.208 632.807 c 128,-1,27
 448.926 623.613 448.926 623.613 458.326 608.37 c 1,28,-1
 415.047 547 l 1,29,30
 389.243 562.298 389.243 562.298 375.891 552.148 c 128,-1,31
 362.528 541.99 362.528 541.99 354.944 528 c 0,32,33
 339.763 499.995 339.763 499.995 339.763 410 c 5,34,-1
 414.407 410 l 5,35,-1
 414.407 330 l 5,36,-1
 337.977 330 l 5,37,-1
 337.977 0 l 1,38,-1
 251.188 0 l 1,0,-1
EndSplineSet
LCarets2: 1 0 
Ligature2: "'liga' Standard Ligatures in Latin lookup 0 subtable" f f
EndChar

StartChar: germandbls
Encoding: 251 223 173
Width: 385
Flags: W
HStem: 0 21G<75.0996 156.93> 334.01 85.6699<159.9 270.96> 334.01 89.9902<25.1904 75.0996>
VStem: 75.0996 81.8301<0 334.01> 79.0801 80.8203<419.68 584.23>
LayerCount: 2
Fore
SplineSet
248.71 552.99 m 0,0,-1
 291.62 615.99 l 1,1,2
 197.065 664.534 197.065 664.534 133.27 601.12 c 0,3,4
 79.0801 547.254 79.0801 547.254 79.0801 424 c 1,5,-1
 25.1904 424 l 1,6,-1
 25.1904 334.01 l 1,7,-1
 75.0996 334.01 l 1,8,-1
 75.0996 0 l 1,9,-1
 156.93 0 l 1,10,-1
 156.93 334.01 l 1,11,-1
 270.96 334.01 l 1,12,-1
 224.43 244.65 l 1,13,14
 294.755 167.61 294.755 167.61 283.7 87.0596 c 128,-1,15
 272.663 6.51562 272.663 6.51562 194.11 -58.9102 c 1,16,-1
 288.36 -58.9102 l 1,17,18
 366.17 6.08008 366.17 6.08008 366.17 98.7803 c 128,-1,19
 366.17 191.475 366.17 191.475 314.51 244.65 c 1,20,-1
 359.03 334.01 l 1,21,-1
 359.03 419.68 l 1,22,-1
 159.9 419.68 l 1,23,24
 160 592 160 592 248.71 552.99 c 0,0,-1
EndSplineSet
EndChar

StartChar: longs
Encoding: 327 383 174
Width: 265
Flags: W
HStem: 0 21G<41.04 127.37>
VStem: 41.04 86.3301<0 517.316>
LayerCount: 2
Fore
SplineSet
41.04 421 m 2,0,1
 41.04 525 41.04 525 93.0996 597.5 c 0,2,3
 144.5 682.5 144.5 682.5 251.96 622 c 1,4,-1
 209.24 547 l 1,5,6
 164.5 577.5 164.5 577.5 142.943 527.003 c 0,7,8
 127.37 494.628 127.37 494.628 127.37 419 c 2,9,-1
 127.37 0 l 1,10,-1
 41.04 0 l 1,11,-1
 41.04 421 l 2,0,1
EndSplineSet
EndChar

StartChar: cent
Encoding: 162 162 175
Width: 555
Flags: W
LayerCount: 2
Fore
SplineSet
445.8 457.3 m 1,0,1
 401.745 494.2 401.745 494.2 358.49 494.2 c 1,2,-1
 358.49 231.4 l 1,3,4
 406.167 243.998 406.167 243.998 445.8 273.7 c 1,5,-1
 445.8 181.9 l 1,6,7
 401.745 150.4 401.745 150.4 358.49 150.4 c 1,8,-1
 358.49 61.3 l 1,9,-1
 296.81 61.3 l 1,10,-1
 296.81 152.2 l 1,11,12
 223.925 152.2 223.925 152.2 177.06 212.95 c 128,-1,13
 130.2 273.7 130.2 273.7 130.2 358.3 c 0,14,15
 130.2 443.8 130.2 443.8 175.46 500.95 c 0,16,17
 221.36 558.1 221.36 558.1 296.81 571.6 c 1,18,-1
 296.81 642.7 l 1,19,-1
 358.49 642.7 l 1,20,-1
 358.49 573.4 l 1,21,22
 391.325 573.4 391.325 573.4 445.8 547.3 c 1,23,-1
 445.8 457.3 l 1,0,1
296.81 493.3 m 1,24,25
 259.865 485.2 259.865 485.2 233.13 449.2 c 0,26,27
 207.105 413.2 207.105 413.2 207.1 364.6 c 0,28,29
 207.1 310.6 207.1 310.6 231.93 275.5 c 0,30,31
 257.492 240.397 257.492 240.397 296.81 231.4 c 1,32,-1
 296.81 493.3 l 1,24,25
EndSplineSet
EndChar

StartChar: Euro
Encoding: 328 8364 176
Width: 493
Flags: MW
HStem: 31.26 89.08 263.13 70.17<38.24 87.52 165.07 328.83> 391.9 70.07<44.35 92.67 167.43 348.81> 595.74 89.08
VStem: 92.67 86.7
LayerCount: 2
Fore
SplineSet
400.38 187.38 m 1,0,-1
 400.38 93.42 l 1,1,2
 332.751 39.0052 332.751 39.0052 255.94 42.26 c 0,3,4
 147.175 47.255 147.175 47.255 94.94 263.13 c 1,5,-1
 20.97 263.13 l 1,6,-1
 38.24 333.3 l 1,7,-1
 87.52 333.3 l 1,8,9
 95.17 336.24 95.17 336.24 92.67 391.9 c 1,10,-1
 27.08 391.9 l 1,11,-1
 44.35 461.97 l 1,12,-1
 93.02 461.97 l 1,13,14
 126.695 668.505 126.695 668.505 275.44 673.82 c 0,15,16
 346.804 676.025 346.804 676.025 411.24 617.38 c 1,17,-1
 411.24 524.3 l 1,18,19
 353.31 600.71 353.31 600.71 282.5 595.74 c 0,20,21
 200.375 588.975 200.375 588.975 167.43 461.97 c 1,22,-1
 374.36 461.97 l 1,23,-1
 348.81 391.9 l 1,24,-1
 160.36 391.9 l 1,25,-1
 159.58 333.3 l 1,26,-1
 354.3 333.3 l 1,27,-1
 328.83 263.13 l 1,28,-1
 165.07 263.13 l 1,29,30
 209.752 121.465 209.752 121.465 263.79 120.34 c 0,31,32
 333.87 118.945 333.87 118.945 400.38 187.38 c 1,0,-1
EndSplineSet
EndChar

StartChar: fi
Encoding: 174 64257 177
Width: 416
Flags: W
LayerCount: 2
Fore
SplineSet
238.15 641.98 m 0,0,1
 263.02 640.795 263.02 640.795 283.84 633.37 c 0,2,3
 309.161 625.05 309.161 625.05 328.87 604.56 c 0,4,5
 346.023 586.729 346.023 586.729 356.85 556.57 c 0,6,7
 360.975 545.08 360.975 545.08 362.4 532.54 c 128,-1,8
 363.825 520 363.825 520 363.87 501.35 c 128,-1,9
 363.915 482.809 363.915 482.809 364.25 476.47 c 1,10,-1
 284.09 476.47 l 1,11,12
 284.255 504.965 284.255 504.965 272.06 527.3 c 0,13,14
 265.004 541.366 265.004 541.366 252.04 548.77 c 128,-1,15
 239.068 556.178 239.068 556.178 226.1 551.03 c 0,16,17
 202.457 541.357 202.457 541.357 195.24 522.33 c 0,18,19
 184.029 492.195 184.029 492.195 182.76 410.02 c 5,20,-1
 364.25 410.02 l 5,21,-1
 364.25 0.00997925 l 1,22,-1
 283.82 0.00997925 l 1,23,-1
 282.4 330.01 l 5,24,-1
 180.09 330.01 l 5,25,-1
 180.09 0.00997925 l 1,26,-1
 95.21 0.00997925 l 1,27,-1
 95.21 331.99 l 5,28,-1
 50.5098 331.99 l 5,29,-1
 50.5098 410.02 l 5,30,-1
 98.7695 410.02 l 5,31,32
 98.7695 451.622 98.7695 451.622 101.52 475.91 c 0,33,34
 108.375 544.055 108.375 544.055 142.74 590.6 c 0,35,36
 181.458 644.681 181.458 644.681 238.15 641.98 c 0,0,1
EndSplineSet
LCarets2: 1 0 
Ligature2: "'liga' Standard Ligatures in Latin lookup 0 subtable" f i
EndChar

StartChar: fl
Encoding: 175 64258 178
Width: 458
Flags: W
LayerCount: 2
Fore
SplineSet
321.98 642.87 m 2,0,-1
 405.97 641.26 l 1,1,-1
 405.97 0.730042 l 1,2,-1
 321.98 0.730042 l 1,3,-1
 321.98 555.76 l 1,4,-1
 251.99 556.01 l 2,5,6
 233.78 556.075 233.78 556.075 220.26 548.61 c 0,7,8
 205.301 540.358 205.301 540.358 198.55 524.32 c 0,9,10
 186.631 494.38 186.631 494.38 185.19 410.02 c 5,11,-1
 277.24 410.02 l 5,12,-1
 277.24 330.01 l 5,13,-1
 182.52 330.01 l 5,14,-1
 182.52 0.0100403 l 1,15,-1
 97.63 0.0100403 l 1,16,-1
 97.6299 331.99 l 5,17,-1
 52.9404 331.99 l 5,18,-1
 52.9404 410.02 l 5,19,-1
 101.2 410.02 l 5,20,21
 101.22 524.156 101.22 524.156 135.86 578.87 c 0,22,23
 172.96 638.539 172.96 638.539 228.99 641.33 c 0,24,25
 243.028 642.02 243.028 642.02 258.28 642.27 c 0,26,27
 275.148 642.53 275.148 642.53 292.67 642.6 c 0,28,29
 311.495 642.69 311.495 642.69 321.98 642.87 c 2,0,-1
EndSplineSet
LCarets2: 1 0 
Ligature2: "'liga' Standard Ligatures in Latin lookup 0 subtable" f l
EndChar

StartChar: uniFB06
Encoding: 329 64262 179
Width: 447
Flags: W
LayerCount: 2
Fore
SplineSet
242.72 641.98 m 2,0,-1
 379.74 641.69 l 1,1,-1
 379.52 424.02 l 1,2,-1
 424.65 424.02 l 1,3,-1
 424.65 339.02 l 1,4,-1
 378.66 339.02 l 1,5,-1
 378.66 0.00994873 l 1,6,-1
 294.59 0.00994873 l 1,7,-1
 294.59 339.98 l 1,8,-1
 253.9 339.98 l 1,9,-1
 253.9 424.02 l 1,10,-1
 298.13 424.02 l 1,11,-1
 298.13 557.15 l 1,12,-1
 253.38 556.02 l 2,13,14
 217.905 556.02 217.905 556.02 202.81 527 c 0,15,16
 186.82 497.96 186.82 497.96 186.82 419.02 c 2,17,-1
 186.82 0.00991821 l 1,18,-1
 100.78 0.00991821 l 1,19,-1
 100.78 420.99 l 2,20,21
 100.78 470.891 100.78 470.891 117.62 528.51 c 0,22,23
 130.925 573.975 130.925 573.975 152.69 597.51 c 128,-1,24
 174.406 620.98 174.406 620.98 197.04 631.48 c 128,-1,25
 219.66 641.98 219.66 641.98 242.72 641.98 c 2,0,-1
EndSplineSet
LCarets2: 1 0 
Ligature2: "'dlig' optionale Ligaturen in Latin lookup 1 subtable" s t
EndChar

StartChar: endash
Encoding: 177 8211 180
Width: 470
Flags: W
HStem: 222 81<49 438>
LayerCount: 2
Fore
SplineSet
447.5 212.5 m 1,0,-1
 39.5 212.5 l 1,1,-1
 39.5 312.5 l 1,2,-1
 447.5 312.5 l 1,3,-1
 447.5 212.5 l 1,0,-1
EndSplineSet
EndChar

StartChar: emdash
Encoding: 208 8212 181
Width: 630
Flags: W
HStem: 222 81<49 438>
LayerCount: 2
Fore
SplineSet
589.5 212.5 m 5,0,-1
 39.5 212.5 l 1,1,-1
 39.5 312.5 l 1,2,-1
 589.5 312.5 l 5,3,-1
 589.5 212.5 l 5,0,-1
EndSplineSet
EndChar
